<?xml version="1.0" encoding="utf-8"?>
<!-- Generator: Adobe Illustrator 25.0.1, SVG Export Plug-In . SVG Version: 6.00 Build 0)  -->
<svg version="1.1"
	 id="Counties_of_California" inkscape:version="0.92.4 (5da689c313, 2019-01-14)" sodipodi:docname="California_Bay_Area_county_map_revised.svg" xmlns:cc="http://creativecommons.org/ns#" xmlns:dc="http://purl.org/dc/elements/1.1/" xmlns:inkscape="http://www.inkscape.org/namespaces/inkscape" xmlns:rdf="http://www.w3.org/1999/02/22-rdf-syntax-ns#" xmlns:sodipodi="http://sodipodi.sourceforge.net/DTD/sodipodi-0.dtd" xmlns:svg="http://www.w3.org/2000/svg"
	 xmlns="http://www.w3.org/2000/svg" xmlns:xlink="http://www.w3.org/1999/xlink" x="0px" y="0px" viewBox="0 0 449.4 468.6"
	 style="enable-background:new 0 0 449.4 468.6;" xml:space="preserve">
<style type="text/css">
	.st0{fill:#C87778;stroke:#FFFFFF;stroke-width:3.9063;stroke-miterlimit:3.9063;}
	.st1{fill:#C87778;stroke:#FFFFFF;stroke-width:3.9063;stroke-miterlimit:1;}
	.st2{fill:#EEAF4B;}
	.st3{fill:#7A3726;}
	.st4{fill:#C56458;}
	.st5{fill:#FBD490;}
	.st6{fill:#88C057;}
</style>
<sodipodi:namedview  bordercolor="#666666" borderopacity="1" fit-margin-bottom="0" fit-margin-left="0" fit-margin-right="0" fit-margin-top="0" gridtolerance="10" guidetolerance="10" id="namedview62" inkscape:current-layer="Counties_of_California" inkscape:cx="431.14568" inkscape:cy="515.73895" inkscape:pageopacity="0" inkscape:pageshadow="2" inkscape:window-height="853" inkscape:window-maximized="0" inkscape:window-width="1440" inkscape:window-x="0" inkscape:window-y="0" inkscape:zoom="0.64390536" objecttolerance="10" pagecolor="#ffffff" showgrid="false">
	</sodipodi:namedview>
<polyline id="_x30_01_Alameda-5" class="st0" points="357.6,176.5 358,177.9 357.7,182.7 358,184.2 356.9,186 358,190.4 
	356.6,190.8 357,192.2 357.7,195.1 357,198.4 357.3,199.8 357.7,201.2 356.3,207.8 357.1,210.8 356.8,221.7 356,231.1 356.1,237.4 
	356.8,246.4 356.1,249.7 356.5,257.4 355.5,259.2 357.2,260.3 357.6,261.7 358,263.1 359.5,262.7 362.8,263.5 363.1,264.9 
	364.6,264.6 367.9,265.4 369.3,265 369.6,266.4 368.2,266.8 368.6,268.2 370,267.8 370.4,269.3 369.4,271.1 371.1,272.3 
	372.7,271.9 373,273.3 374.4,272.9 374.8,274.3 375.2,275.8 376.6,275.5 374.5,279.2 286.8,275.2 281.1,276.6 281.4,278 
	279.9,278.4 280.3,279.9 278.9,280.3 278.5,278.8 277,279.2 277.4,280.7 270.1,282.5 270.5,283.9 269,284.3 268.7,282.9 
	267.3,283.2 266.9,281.7 265.4,282.1 265,280.7 264.6,279.2 263.2,279.5 263.6,281.1 257.8,282.6 250.5,278.2 242.5,277.1 
	239.5,271.7 235.5,268.1 234.1,268.5 230.8,267.7 226,255 220.1,244.1 218.2,230.7 218.9,221.1 213,210.3 208.7,205.2 203.9,204.9 
	203.1,201.9 199.6,199.8 200.6,197.9 200.3,196.5 206.5,196.4 207.5,194.7 205.7,193.5 191.8,187.8 180.2,184.5 178.4,177.3 
	180.1,172.2 185.2,167.8 185.9,164.6 185.9,158.3 184.4,152.5 182.2,150 181.8,148.5 183.3,148.1 184.7,147.8 186.2,147.4 
	186.6,148.9 188,148.6 189.4,148.2 189.1,146.7 190.6,146.3 192,145.9 192.4,147.4 193.9,147.1 194.3,148.5 194.6,149.9 196,149.5 
	196.4,151 196.8,152.4 197.2,154 198.6,153.6 200.1,153.2 200.4,154.6 201.9,154.3 202.2,155.7 204.1,156.8 204.5,158.2 203,158.6 
	203.7,161.5 205.2,161.2 205.6,162.6 207,162.2 207.4,163.7 207.8,165.1 208.1,166.7 209.5,166.3 209.9,167.7 211.4,167.3 
	211.8,168.7 210.3,169.1 210.6,170.6 211,172.1 211.4,173.6 212.9,173.2 213.3,174.6 214.7,174.2 217.6,173.5 219.4,174.5 
	219.8,176.1 220.1,177.5 221.6,177.1 222,178.6 223.4,178.3 226.7,178.9 228.1,178.6 229.6,178.2 232.9,178.8 234.3,178.5 
	237.7,179.3 239.4,180.3 242.4,179.6 244.5,182.1 246,181.7 246.4,183.1 248.2,184.3 250,185.3 252.6,189.3 254.4,190.5 250.4,193 
	251.1,195.9 253.4,198.5 254.8,198.1 255.2,199.5 257,200.7 258.5,200.3 258.8,201.7 260.3,201.3 262.5,203.9 304.6,193.2 
	311.4,189.8 347.8,180.5 347.4,179.1 357.6,176.5 "/>
<path id="_x30_13_Contra_Costa-2" inkscape:connector-curvature="0" class="st1" d="M354.8,99.8l-2.8,0.7l0.7,2.9l-1.5,0.4l1.1,4.3
	l-1.4,0.4l1.1,4.3l1.4-0.4l-0.7-2.9l1.5-0.4l0.7,2.9l1.4-0.4l1.1,4.3l-1.4,0.4l0.4,1.5l-4.4,1.1l0.4,1.4l2.9-0.7l0.4,1.5l-2.9,0.7
	l0.7,2.8l-1.4,0.4l0.4,1.5l1.4-0.4l0.4,1.4l-1.4,0.4l0.4,1.5l1.4-0.4l0.4,1.4l-1.4,0.4l0.4,1.4l1.4-0.4l0.4,1.5l-2.8,0.7l1.8,1.1
	l0.7,2.9l1.1-1.8l0.4,1.4l0.4,1.4l-1.4,0.4l0.4,1.5l1.4-0.4l0.4,1.4l-1.4,0.4l0.4,1.5l1.4-0.4l0.4,1.4l-2.8,0.7l0.7,2.9l-2.9,0.7
	l0.4,1.4l1.4-0.4l0.4,1.5l-1.4,0.4l0.4,1.4l-1.5,0.4l0.7,2.9l-1.4,0.4l0.4,1.4l-1.4,0.4l0.4,1.5l1.4-0.4l0.4,1.4l-1.4,0.4l0.4,1.4
	l1.4-0.4l0.4,1.5l4.3-1.1l0.4,1.4l1.5-0.4l0.4,1.5l1.4-0.4l0.4,1.4l-1.4,0.4l0.7,2.9l-4.4,1.1l0.7,2.9l-1.4,0.4l0.4,1.4l-1.4,0.4
	l-8.8,2.2l0.4,1.4l-36.3,9.3l-6.9,3.4l-34.8,8.9l-7.2,1.9l-2.3-2.5l-1.4,0.4l-0.4-1.4l-1.5,0.4l-1.8-1.1l-0.4-1.4l-1.4,0.4l-2.3-2.5
	l-0.7-2.9l4-2.5l-1.8-1.2l-2.5-4l-1.9-1l-1.8-1.2l-0.4-1.4l-1.5,0.4l-2.1-2.5L240,180l-1.8-1.1l-3.3-0.8l-1.4,0.4l-3.3-0.7l-1.5,0.4
	l-1.4,0.4l-3.3-0.7l-1.4,0.4l-0.4-1.5l-1.5,0.4l-0.4-1.4l-0.4-1.5l-1.8-1l-2.9,0.7l-1.4,0.4l-0.4-1.4l-1.5,0.4l-0.4-1.5l-0.4-1.4
	l-0.4-1.5l1.5-0.4l-0.4-1.4l-1.5,0.4l-1-1.2l-1.4,0.4l-0.4-1.5l-0.4-1.4l-0.4-1.5l-1.4,0.4l-0.4-1.4l-1.5,0.4l-0.7-2.9l1.5-0.4
	l-0.4-1.4l-1.9-1.1l-0.4-1.4l-1.4,0.4l-0.4-1.4l-1.5,0.4l-1.4,0.4l-0.4-1.5l-0.4-1.4l-0.4-1.5l-1.4,0.4l-0.4-1.4l-0.4-1.4l-1.5,0.4
	l-0.4-1.5l-1.4,0.4l-1.5,0.4l0.4,1.5l-1.4,0.4l-1.4,0.4l-0.4-1.5l-1.5,0.4l-1.4,0.4l-1.5,0.4l-2.2-2.6l-5.1-1.7h-6.2l-1.4,0.4
	l-3-5.4l-2.6-4.1l-0.4-1.4l1.1-1.8l4-2.7l4.3-7.2l1.4-6.6l1.1-1.8l6.6,1.3l7.2-1.9l6.5-4.7l9.4-5.5l5.1,1.8l6.6,1.4l4,3.7l5.2,1.7
	l16.3-2.5l8.3-3.7l7.3-1.9l5.6,3.3l8,1l18.2,4.7l19.7,4.2l20.7,2.5l4.3-1.1l-2.2-2.6l-3.6-2.1l5.5-3l3.6-4l0.3-4.7l0.4-4.7l2.8-0.7
	l9.1-0.8l6.5,1.5L354.8,99.8 M356,116.5l-0.4-1.4l-1.5,0.4l0.4,1.4L356,116.5"/>
<polyline id="_x30_41_Marin-3" class="st0" points="25.9,22.5 27.1,20.7 28.5,20.3 30,20 31.4,19.6 32.8,19.2 32.5,17.8 34,17.4 
	35.8,18.5 37.6,19.5 39,19.2 39.4,20.7 40.8,20.3 42,18.4 42.4,19.9 44.1,21 43.8,19.6 43.4,18 44.9,17.7 46.3,17.3 46.7,18.8 
	48.1,18.4 50,19.5 54,23.1 54.4,24.6 56.2,25.6 58,26.8 58.3,28.2 62,30.4 66.4,35.4 68.2,36.6 68.6,38 70.5,39.1 72.6,41.6 
	74.5,42.7 76.6,45.3 78.4,46.3 82.4,49.9 82.8,51.5 84.7,52.5 86.1,52.1 87.9,53.2 89.4,52.8 89.8,54.3 91.2,53.9 91.6,55.3 
	93.1,55 93.5,56.5 94.9,56.1 96.3,55.8 96.7,57.2 98.2,56.8 98.5,58.2 99.9,57.8 101.4,57.5 101.8,59 103.3,58.6 103.6,60 105,59.7 
	105.4,61.2 106.9,60.8 108.3,60.4 108.7,61.9 110.2,61.5 111.6,61.1 113,60.7 114.5,60.4 114.9,61.8 116.3,61.4 116,60 117.5,59.6 
	118.9,59.3 120.3,58.9 120.6,60.3 122.2,59.9 122.6,61.4 124,61.1 125.5,60.7 124.3,62.5 124.7,64 125.1,65.4 126.6,65 128,64.7 
	128.4,66.1 126.9,66.5 127.3,68 127.7,69.4 129.1,69 130.5,68.6 130.9,70.2 131.3,71.6 132.8,71.2 133.1,72.6 134.5,72.3 
	134.9,73.8 135.3,75.2 136.8,74.8 137.2,76.3 137.6,77.7 137.9,79.1 138.3,80.6 138.7,82.1 139,83.6 140.5,83.2 141.9,82.9 
	142.2,84.3 142.6,85.7 145.6,91.2 146.3,94.1 144.2,103.9 140.5,108 140.9,109.4 141.6,112.3 149,116.7 152.6,118.9 153,120.3 
	151.9,122.1 147.9,124.7 142.2,126.1 141.4,129.5 144,133.4 141.4,135.6 140.3,137.5 142.9,141.4 148.4,144.7 152.1,146.8 
	154.9,152.3 153.9,154.1 152.8,155.9 151.3,156.3 148.4,157 147,157.4 143.6,150.5 139.3,151.6 145.9,165.4 146.3,166.9 
	141.2,171.2 138,170.5 136.5,170.9 136.1,169.5 133.2,170.3 132.8,168.8 101.9,144.2 98.6,137.3 98.5,143.4 93.2,146.4 75.2,130.8 
	64.2,111.9 44.2,106.1 41.6,95.9 45.3,92 41.3,94.5 40.2,90.2 34.4,97.8 40.6,103.9 37.3,103.3 29.7,109.8 32.6,115.3 19.9,114 
	37.4,67.6 29.4,41.8 52.5,77.7 66.7,91.2 43.2,47.6 34.4,43.6 26.3,24 25.9,22.5 "/>
<polyline id="_x30_75_San_Francisco-5" class="st0" points="166.9,205 137.4,204.8 137.7,181.5 143.8,181.4 145.3,174.9 
	164.5,177.8 168.7,199.9 166.1,202.1 166.9,205 "/>
<polyline id="_x30_81_San_Mateo-7" class="st0" points="166.9,205 166.6,222.1 165.5,224 168.1,234.1 183.8,247.2 191.8,248.3 
	196.5,254.8 207.2,259.8 215.9,270 221,271.8 226.1,279.8 221.8,280.9 222.1,282.3 219.2,283 218.8,281.6 211.6,283.5 211.9,284.9 
	210.5,285.2 210.9,286.7 208,287.5 208.4,288.9 206.9,289.3 207.3,290.8 205.8,291.2 206.5,294 205.1,294.4 207,301.6 205.5,302 
	205.8,303.5 204.8,305.3 205.2,306.8 203.8,307.2 204.1,308.6 202.6,309 204.5,316.3 206,315.9 206.7,318.8 208.5,319.9 
	208.9,321.4 206,322.1 207.1,326.5 210,325.7 210.3,327.1 211.8,326.8 212.5,329.7 211.1,330.1 211.5,331.5 212.9,331.1 
	213.3,332.6 214.8,332.2 215.1,333.6 213.6,334 214.4,337 214.1,341.7 213.4,345 214.9,350.8 213.4,351.2 214.1,354 208.4,355.5 
	208,354.1 203.6,355.2 200.4,354.5 197.4,355.3 197.1,353.7 192.7,354.8 193.1,356.4 192,358.2 192.7,361.1 188.3,362.2 186.6,361 
	180.7,362.5 177.4,361.9 174.5,362.6 175.3,365.5 174.2,367.3 177.2,378.9 179,380.1 180.4,385.8 176.9,383.7 166.9,369.2 
	158.9,362 151.9,346.6 158.7,312.4 147.2,273.5 142.8,268.5 136.7,268.5 132.9,260.2 132.5,240.1 137.6,235.7 139.7,225.9 
	136.3,206.6 137.4,204.8 166.9,205 "/>
<path id="_x30_85_Santa_Clara-9" inkscape:connector-curvature="0" class="st1" d="M211.6,283.5l0.4,1.4l-1.4,0.4l0.4,1.5l-1.5,0.4
	l-1.5,0.4l0.4,1.4l-1.4,0.4l0.4,1.6l-1.5,0.4l0.4,1.4l0.4,1.4l-1.4,0.4l0.4,1.5l0.4,1.4l0.4,1.6l0.4,1.4l0.4,1.4l-1.5,0.4l0.4,1.5
	l-1.1,1.8l0.4,1.6l-1.4,0.4l0.4,1.4l-1.5,0.4l0.4,1.4l0.4,1.5l0.4,1.5l0.4,1.5l0.4,1.4l1.5-0.4l0.4,1.4l0.4,1.5l1.8,1.1l0.4,1.5
	l-1.4,0.4l-1.5,0.4l0.4,1.4l0.4,1.4l0.4,1.5l1.5-0.4l1.4-0.4l0.4,1.5l1.5-0.4l0.4,1.5l0.4,1.4l-1.5,0.4l0.4,1.4l1.5-0.4l0.4,1.5
	l1.5-0.4l0.4,1.5l0.4,1.5l-1.1,1.7l1.5-0.4l0.4,1.4l0.4,1.5l1.4-0.4l0.4,1.5l1.9,1.1l1.4-0.4l0.4,1.4l0.4,1.4l2.3,2.6l0.4,1.5
	l0.4,1.4l1.5-0.4l0.4,1.4l0.4,1.5l1.8,1.1l1.5-0.4l0.4,1.5l1.4-0.4l0.4,1.4l0.4,1.4l1.5-0.4l1.5-0.4l0.4,1.6l1.7,1.1l0.4,1.5
	l0.4,1.4l1.9,1.1l1.4-0.4l0.4,1.5l-1.4,0.4l0.4,1.4l0.4,1.5l0.4,1.4l0.4,1.4l1.4-0.4l0.4,1.6l1.4-0.4l0.4,1.4l1.6-0.4l0.4,1.5
	l1.4-0.4l0.4,1.4l0.4,1.4l0.4,1.6l1.5-0.4l0.4,1.4l1.4-0.4l1.5-0.4l0.4,1.5l1.9,1l0.4,1.4l1.4-0.4l0.4,1.6l1.5-0.4l1.7,1l1.5-0.4
	l0.4,1.5l1.5-0.4l3.6,2l0.4,1.6l1.4-0.4l1.5-0.4l0.4,1.4l1.9,1.1l1.4-0.4l1.9,1l2.8-0.7l0.4,1.4l0.4,1.6l1.6-0.4l1.4-0.4l0.4,1.4
	l0.4,1.5l1.5-0.4l0.4,1.4l1.4-0.4l1.4-0.4l0.4,1.5l0.4,1.5l0.4,1.4l1.6-0.4l0.4,1.5l0.4,1.4l1.4-0.4l1.9,1.1l1.8,1.1l0.4,1.4
	l1.4-0.4l1.9,1.1l1.5-0.4l0.4,1.4l1.5-0.4l0.4,1.5l0.7,2.9l0.4,1.5l1.4-0.4l0.4,1.4l1.8,1.2l1.9,1.1l0.4,1.4l1.9,1.1L317,418
	l0.4,1.4l-2.5,2.2l0.4,1.5l-1.4,0.4l-1.1,1.8l1.5-0.4l3.9-2.5l0.4,1.4l1.5-0.4l-1.1,1.9l1.5-0.4l0.4,1.4l1.5-0.4l1.4-0.4l-1,1.9
	l0.4,1.5l-1.5,0.4l0.4,1.4l1.5-0.4l0.4,1.5l1.4-0.4l1.4-0.4l0.4,1.5l1.5-0.4l1.9,1l0.4,1.5l0.4,1.4l0.4,1.5l1.5-0.4l0.4,1.4l0.4,1.5
	l0.4,1.5l0.4,1.4l1.4-0.4l-0.4-1.4l1.4-0.4l1.5-0.4l1.5-0.4l0.4,1.4l3.7,2.2l1.7,1.1l1.5-0.4l0.4,1.5l1.9,1l-0.4,4.8l1.9,1.1
	l0.4,1.4l1.1-1.8l1.7,1l1-1.7l-0.7-2.9l1.5-0.4l1.4-0.4l2.6-2.2l-0.4-1.5l1.4-0.4l1.1-1.8l4-2.6l-0.4-1.4l1.4-0.4l-0.4-1.5l-0.4-1.5
	l1.2-1.8l1.1-1.9l1.5-0.4l2-3.6l3.6,2.2l1.5-0.4l-0.4-1.5l1.5-0.4l1.4-0.4l1.5-0.4l0.4,1.5l1.8,1.1l2,1l0.4,1.5l2.1,2.5l0.4,1.5
	l47.9,0.2l-0.4-1.5l-1.4,0.4l-0.4-1.5l-1.5,0.4l-0.4-1.4l-1.9-1.1l-0.4-1.4l-0.4-1.5l-0.4-1.5l1.2-1.8l1.5-0.4l1.4-0.4l-0.4-1.5
	l-0.4-1.4l-0.4-1.5l-0.4-1.5l-0.4-1.4l-1.4,0.4l-0.8-3l1.8,1.2l-0.4-1.5l1.5-0.4l1.4-0.4l1.5-0.4l-0.4-1.4l0.8-3.3l1.4-0.4l1.5-0.4
	l-0.4-1.5l1.4-0.4l-0.4-1.4l-0.4-1.5l-1.4,0.4l-0.4-1.5l-1.5,0.4l-0.4-1.4l-0.4-1.5l-1.4,0.4l-0.4-1.5l-1.5,0.4l-0.4-1.4l-0.4-1.5
	l1.5-0.4l1.4-0.4l-0.4-1.4l1.5-0.4l-0.4-1.5l1-1.9l1.5-0.4l-0.4-1.4l1.5-0.4l-1.9-1.1l-0.4-1.4l-0.4-1.5l-1.9-1.1l-1.5-5.8l-1.4,0.4
	l-1.9-1.1l-1.4,0.4l-0.4-1.4l-1.5,0.4l-1.5-5.9l-1.5,0.4l-0.4-1.4l-1.4,0.4l0.4,1.4l-1.5,0.4l0.4,1.5l-1.4,0.4l0.4,1.5l-1.5,0.4
	l-0.4-1.5l-1.5,0.4l-1.8-1.2l0.4,1.5l-2.9,0.7l-0.7-2.9l-1.5,0.4l-1.9-1.1l-0.4-1.4l-1.4,0.4l-0.4-1.5l-2.9,0.7l-1.1,1.9l-1.5,0.4
	l0.4,1.4l-2.9,0.7l1.1,4.4l-4.4,1.1l-1.9-7.2l-1.1-4.4l1.5-0.4l-0.8-3l-1.5,0.4l-0.4-1.4l1.5-0.4l-0.7-2.9l-2.4-0.9l1.5-0.4
	l-0.4-1.6l-1.5,0.4l-0.7-2.8l-2.9,0.7l-1.1-4.5l-1.4,0.4l-1.1-4.1l1.4-0.4l-1.1-4.4l1.5-0.4l-0.4-1.4l-1.9-1.1l-0.4-1.4l1.9,1
	l-0.4-1.4l1.4-0.4l-0.4-1.6l3-0.7l0.4,1.6l1.4-0.4l-0.4-1.6l2.9-0.7l-0.4-1.4l4.4-1.1l-1.9-7.2l-2.5-3.9l1.4-0.4l-1.5-5.9l1.5-0.4
	l1-1.9l-0.4-1.5l1.5-0.4l-0.7-2.8l-1.5,0.4l-0.4-1.5l-1.4,0.4l-1.9-1.1l-4.4,1.1l-1.9-7.3l-1.4,0.4l-0.7-2.9l1.1-1.7l-0.4-1.5
	l1.5-0.4l-1.1-4.4l1.5-0.4l-0.4-1.4l-1.5,0.4l-0.4-1.5l-1.5,0.4l-0.4-1.5l1.9-5l-89.1-3.7l-5.8,1.5l0.4,1.4l-1.5,0.4l0.4,1.6
	l-1.5,0.4l-0.4-1.6l-1.5,0.4l0.4,1.6l-7.2,1.9l0.4,1.4l-1.4,0.4l-0.4-1.4l-1.4,0.4l-0.4-1.6l-1.5,0.4l-0.4-1.4l-0.4-1.5l-1.4,0.4
	l0.4,1.5l-7.3,1.9l-1.2,1.8l-3.9,2.7l-6.2-0.1l-8-1l-5.1-1.7l-5.9-4.8l-1.4,0.4l-3,0.8l0.4,1.4l-1.4,0.4l-1.5,0.4l-0.4-1.4l-1.4,0.4
	l-1.5,0.4l-1.5,0.4l-1.4,0.4L211.6,283.5L211.6,283.5z"/>
<g>
	<g>
		<path class="st2" d="M159,191.3c-0.2,0-0.3,0-0.5,0c-0.5,0-0.9-0.1-1.2-0.2c-0.3,0.1-0.7,0.2-1.2,0.2c-0.6,0-1.1-0.1-1.4-0.3
			c-0.3,0.2-0.8,0.3-1.4,0.3c-0.6,0-1.2-0.2-1.5-0.4c-0.3,0.3-0.9,0.4-1.5,0.4s-1.1-0.1-1.4-0.3c-0.3,0.2-0.8,0.3-1.4,0.3
			c-0.2,0-0.4,0-0.6-0.1c0,0.1,0,0.2,0,0.2c0,1,0.8,1.9,1.9,1.9h8.2c1,0,1.9-0.8,1.9-1.9C159,191.5,159,191.4,159,191.3
			C159,191.4,159,191.4,159,191.3z"/>
	</g>
	<path class="st3" d="M159,189.7c0,0.3-0.2,0.5-0.5,0.5h-0.8c0.1,0.1,0.2,0.2,0.2,0.4c0,0.3-0.2,0.5-0.6,0.6
		c0.3,0.1,0.7,0.2,1.2,0.2c1,0,1.8-0.4,1.8-0.9C160.2,190.1,159.7,189.8,159,189.7z"/>
	<path class="st4" d="M154.9,190.1c0.1,0.1,0.2,0.2,0.2,0.4c0,0.2-0.1,0.4-0.4,0.5c0.3,0.2,0.8,0.3,1.4,0.3c1,0,1.8-0.4,1.8-0.9
		c0-0.1-0.1-0.3-0.2-0.4h-2.8V190.1z"/>
	<path class="st2" d="M159,188.5c0-1-0.8-1.9-1.9-1.9c-0.5,0-1,0.2-1.4,0.6c-0.3-0.4-0.8-0.6-1.4-0.6c-0.5,0-1,0.2-1.4,0.6
		c-0.3-0.4-0.8-0.6-1.4-0.6c-0.5,0-1,0.2-1.4,0.6c-0.3-0.4-0.8-0.6-1.4-0.6c-1,0-1.9,0.8-1.9,1.9v0.1l0,0v1c0,0.3,0.2,0.5,0.5,0.5
		h11c0.3,0,0.5-0.2,0.5-0.5v-1C159,188.6,159,188.6,159,188.5C159,188.6,159,188.5,159,188.5z"/>
	<path class="st3" d="M147.5,190.1c-0.3,0-0.5-0.2-0.5-0.4c-0.7,0.1-1.1,0.4-1.1,0.8c0,0.5,0.8,0.9,1.8,0.9s1.8-0.4,1.8-0.9
		c0-0.1-0.1-0.3-0.2-0.4H147.5z"/>
	<path class="st4" d="M149.2,190.1c0.1,0.1,0.2,0.2,0.2,0.4c0,0.2-0.1,0.4-0.4,0.5c0.3,0.2,0.8,0.3,1.4,0.3c1,0,1.8-0.4,1.8-0.9
		c0-0.1-0.1-0.3-0.2-0.4h-2.8V190.1z"/>
	<path class="st3" d="M151.9,190.1c0.1,0.1,0.2,0.2,0.2,0.4c0,0.2-0.1,0.3-0.2,0.4c0.3,0.3,0.9,0.4,1.5,0.4c1,0,1.8-0.4,1.8-0.9
		c0-0.1-0.1-0.3-0.2-0.4h-3.1V190.1z"/>
	<circle class="st5" cx="148.6" cy="192.1" r="0.2"/>
	<circle class="st5" cx="149.9" cy="192.6" r="0.2"/>
	<circle class="st5" cx="150.9" cy="192.1" r="0.2"/>
	<circle class="st5" cx="151.6" cy="192.6" r="0.2"/>
	<circle class="st5" cx="152.6" cy="192.1" r="0.2"/>
	<circle class="st5" cx="153.6" cy="192.6" r="0.2"/>
	<circle class="st5" cx="154.6" cy="191.9" r="0.2"/>
	<circle class="st5" cx="155.4" cy="192.6" r="0.2"/>
	<circle class="st5" cx="156.6" cy="192.1" r="0.2"/>
	<circle class="st5" cx="157.6" cy="192.4" r="0.2"/>
	<path class="st5" d="M149.8,189c-0.1,0-0.2-0.1-0.2-0.2c0-1.2,1-2.1,2.1-2.1c0.1,0,0.2,0.1,0.2,0.2s-0.1,0.2-0.2,0.2
		c-0.9,0-1.6,0.7-1.6,1.6C150.1,188.9,150,189,149.8,189z"/>
	<path class="st5" d="M152.5,189c-0.1,0-0.2-0.1-0.2-0.2c0-1.2,1-2.1,2.1-2.1c0.1,0,0.2,0.1,0.2,0.2s-0.1,0.2-0.2,0.2
		c-0.9,0-1.6,0.7-1.6,1.6C152.7,188.9,152.6,189,152.5,189z"/>
	<g>
		<path class="st2" d="M155.2,188.7c0-1,0.8-1.9,1.9-1.9"/>
		<path class="st5" d="M155.2,189c-0.1,0-0.2-0.1-0.2-0.2c0-1.2,1-2.1,2.1-2.1c0.1,0,0.2,0.1,0.2,0.2s-0.1,0.2-0.2,0.2
			c-0.9,0-1.6,0.7-1.6,1.6C155.5,188.9,155.4,189,155.2,189z"/>
	</g>
	<path class="st6" d="M149.5,189.6C149.4,189.6,149.4,189.6,149.5,189.6c-0.1-0.2-0.3-0.3-0.5-0.3h-0.1c0-0.2-0.2-0.3-0.4-0.3
		s-0.3,0.1-0.4,0.3H148c-0.1,0-0.3,0-0.4,0.1c-0.1-0.1-0.2-0.1-0.4-0.1c-0.3,0-0.6,0.2-0.6,0.5s0.3,0.5,0.6,0.5c0.1,0,0.2,0,0.2,0
		c0.1,0.2,0.3,0.3,0.5,0.3c0.1,0,0.2,0,0.3-0.1c0.1,0.1,0.2,0.1,0.3,0.1c0.2,0,0.4-0.1,0.5-0.3c0.1,0.1,0.2,0.1,0.4,0.1
		c0.3,0,0.6-0.2,0.6-0.4S149.8,189.6,149.5,189.6z"/>
	<path class="st6" d="M152.5,189.6C152.4,189.6,152.4,189.6,152.5,189.6c-0.1-0.2-0.3-0.3-0.5-0.3h-0.1c0-0.2-0.2-0.3-0.4-0.3
		s-0.3,0.1-0.4,0.3H151c-0.1,0-0.3,0-0.4,0.1c-0.1-0.1-0.2-0.1-0.4-0.1c-0.3,0-0.6,0.2-0.6,0.5s0.3,0.5,0.6,0.5c0.1,0,0.2,0,0.2,0
		c0.1,0.2,0.3,0.3,0.5,0.3c0.1,0,0.2,0,0.3-0.1c0.1,0.1,0.2,0.1,0.3,0.1c0.2,0,0.4-0.1,0.5-0.3c0.1,0.1,0.2,0.1,0.4,0.1
		c0.3,0,0.6-0.2,0.6-0.4S152.8,189.6,152.5,189.6z"/>
	<path class="st6" d="M155.7,189.6C155.6,189.6,155.6,189.6,155.7,189.6c-0.1-0.2-0.3-0.3-0.5-0.3h-0.1c0-0.2-0.2-0.3-0.4-0.3
		s-0.3,0.1-0.4,0.3h-0.1c-0.1,0-0.3,0-0.4,0.1c-0.1-0.1-0.2-0.1-0.4-0.1c-0.3,0-0.6,0.2-0.6,0.5s0.3,0.5,0.6,0.5c0.1,0,0.2,0,0.2,0
		c0.1,0.2,0.3,0.3,0.5,0.3c0.1,0,0.2,0,0.3-0.1c0.1,0.1,0.2,0.1,0.3,0.1c0.2,0,0.4-0.1,0.5-0.3c0.1,0.1,0.2,0.1,0.4,0.1
		c0.3,0,0.6-0.2,0.6-0.4S156.1,189.6,155.7,189.6z"/>
	<path class="st6" d="M159,189.6C158.9,189.6,158.9,189.6,159,189.6c-0.1-0.2-0.3-0.3-0.5-0.3h-0.1c0-0.2-0.2-0.3-0.4-0.3
		s-0.3,0.1-0.4,0.3h-0.1c-0.1,0-0.3,0-0.4,0.1c-0.1-0.1-0.2-0.1-0.4-0.1c-0.3,0-0.6,0.2-0.6,0.5s0.3,0.5,0.6,0.5c0.1,0,0.2,0,0.2,0
		c0.1,0.2,0.3,0.3,0.5,0.3c0.1,0,0.2,0,0.3-0.1c0.1,0.1,0.2,0.1,0.3,0.1c0.2,0,0.4-0.1,0.5-0.3c0.1,0.1,0.2,0.1,0.4,0.1
		c0.3,0,0.6-0.2,0.6-0.4S159.3,189.6,159,189.6z"/>
</g>
<g>
	<g>
		<path class="st2" d="M66.8,99c-0.2,0-0.3,0-0.5,0c-0.5,0-0.9-0.1-1.2-0.2c-0.3,0.1-0.7,0.2-1.2,0.2c-0.6,0-1.1-0.1-1.4-0.3
			c-0.3,0.2-0.8,0.3-1.4,0.3c-0.6,0-1.2-0.2-1.5-0.4c-0.3,0.3-0.9,0.4-1.5,0.4s-1.1-0.1-1.4-0.3c-0.3,0.2-0.8,0.3-1.4,0.3
			c-0.2,0-0.4,0-0.6-0.1c0,0.1,0,0.2,0,0.2c0,1,0.8,1.9,1.9,1.9h8.2c1,0,1.9-0.8,1.9-1.9C66.8,99.1,66.8,99.1,66.8,99
			C66.8,99.1,66.8,99,66.8,99z"/>
	</g>
	<path class="st3" d="M66.8,97.3c0,0.3-0.2,0.5-0.5,0.5h-0.8c0.1,0.1,0.2,0.2,0.2,0.4c0,0.3-0.2,0.5-0.6,0.6
		c0.3,0.1,0.7,0.2,1.2,0.2c1,0,1.8-0.4,1.8-0.9C68.1,97.8,67.6,97.4,66.8,97.3z"/>
	<path class="st4" d="M62.8,97.8c0.1,0.1,0.2,0.2,0.2,0.4s-0.1,0.4-0.4,0.5c0.3,0.2,0.8,0.3,1.4,0.3c1,0,1.8-0.4,1.8-0.9
		c0-0.1-0.1-0.3-0.2-0.4L62.8,97.8L62.8,97.8z"/>
	<path class="st2" d="M66.8,96.2c0-1-0.8-1.9-1.9-1.9c-0.5,0-1,0.2-1.4,0.6c-0.3-0.4-0.8-0.6-1.4-0.6c-0.5,0-1,0.2-1.4,0.6
		c-0.3-0.4-0.8-0.6-1.4-0.6c-0.5,0-1,0.2-1.4,0.6c-0.3-0.4-0.8-0.6-1.4-0.6c-1,0-1.9,0.8-1.9,1.9v0.1l0,0v1c0,0.3,0.2,0.5,0.5,0.5
		h11c0.3,0,0.5-0.2,0.5-0.5v-1C66.8,96.3,66.8,96.3,66.8,96.2L66.8,96.2z"/>
	<path class="st3" d="M55.3,97.8c-0.3,0-0.5-0.2-0.5-0.4c-0.7,0.1-1.1,0.4-1.1,0.8c0,0.5,0.8,0.9,1.8,0.9s1.8-0.4,1.8-0.9
		c0-0.1-0.1-0.3-0.2-0.4L55.3,97.8L55.3,97.8z"/>
	<path class="st4" d="M57,97.8c0.1,0.1,0.2,0.2,0.2,0.4s-0.1,0.4-0.4,0.5c0.3,0.2,0.8,0.3,1.4,0.3c1,0,1.7-0.4,1.7-0.9
		c0-0.1-0.1-0.3-0.2-0.4L57,97.8L57,97.8z"/>
	<path class="st3" d="M59.8,97.8c0.1,0.1,0.2,0.2,0.2,0.4s-0.1,0.3-0.2,0.4c0.3,0.3,0.9,0.4,1.5,0.4c1,0,1.8-0.4,1.8-0.9
		c0-0.1-0.1-0.3-0.2-0.4h-3.1V97.8z"/>
	<circle class="st5" cx="56.5" cy="99.8" r="0.2"/>
	<circle class="st5" cx="57.7" cy="100.3" r="0.2"/>
	<circle class="st5" cx="58.7" cy="99.8" r="0.2"/>
	<circle class="st5" cx="59.5" cy="100.3" r="0.2"/>
	<circle class="st5" cx="60.5" cy="99.8" r="0.2"/>
	<circle class="st5" cx="61.5" cy="100.3" r="0.2"/>
	<circle class="st5" cx="62.5" cy="99.5" r="0.2"/>
	<circle class="st5" cx="63.2" cy="100.3" r="0.2"/>
	<circle class="st5" cx="64.5" cy="99.8" r="0.2"/>
	<circle class="st5" cx="65.5" cy="100" r="0.2"/>
	<path class="st5" d="M57.7,96.6c-0.1,0-0.2-0.1-0.2-0.2c0-1.2,1-2.1,2.1-2.1c0.1,0,0.2,0.1,0.2,0.2c0,0.1-0.1,0.2-0.2,0.2
		c-0.9,0-1.6,0.7-1.6,1.6C57.9,96.5,57.8,96.6,57.7,96.6z"/>
	<path class="st5" d="M60.3,96.7c-0.1,0-0.2-0.1-0.2-0.2c0-1.2,1-2.1,2.1-2.1c0.1,0,0.2,0.1,0.2,0.2c0,0.1-0.1,0.2-0.2,0.2
		c-0.9,0-1.6,0.7-1.6,1.6C60.6,96.6,60.5,96.7,60.3,96.7z"/>
	<g>
		<path class="st2" d="M63.1,96.4c0-1,0.8-1.9,1.9-1.9"/>
		<path class="st5" d="M63.1,96.7c-0.1,0-0.2-0.1-0.2-0.2c0-1.2,1-2.1,2.1-2.1c0.1,0,0.2,0.1,0.2,0.2c0,0.1-0.1,0.2-0.2,0.2
			c-0.9,0-1.6,0.7-1.6,1.6C63.3,96.6,63.2,96.7,63.1,96.7z"/>
	</g>
	<path class="st6" d="M57.3,97.3h-0.1c0-0.2-0.2-0.3-0.4-0.3h-0.1c0-0.2-0.2-0.3-0.4-0.3c-0.2,0-0.3,0.1-0.4,0.3h-0.1
		c-0.1,0-0.3,0-0.4,0.1C55.3,97,55.2,97,55,97c-0.3,0-0.6,0.2-0.6,0.5S54.7,98,55,98c0.1,0,0.2,0,0.2,0c0.1,0.2,0.3,0.3,0.5,0.3
		c0.1,0,0.2,0,0.3-0.1c0.1,0.1,0.2,0.1,0.3,0.1c0.2,0,0.4-0.1,0.5-0.3c0.1,0.1,0.2,0.1,0.4,0.1c0.3,0,0.6-0.2,0.6-0.4
		S57.7,97.3,57.3,97.3z"/>
	<path class="st6" d="M60.3,97.3L60.3,97.3C60.2,97.1,60,97,59.8,97h-0.1c0-0.2-0.2-0.3-0.4-0.3S59,96.8,58.9,97h-0.1
		c-0.1,0-0.3,0-0.4,0.1C58.3,97,58.2,97,58,97c-0.3,0-0.6,0.2-0.6,0.5S57.7,98,58,98c0.1,0,0.2,0,0.2,0c0.1,0.2,0.3,0.3,0.5,0.3
		c0.1,0,0.2,0,0.3-0.1c0.1,0.1,0.2,0.1,0.3,0.1c0.2,0,0.4-0.1,0.5-0.3c0.1,0.1,0.2,0.1,0.4,0.1c0.3,0,0.6-0.2,0.6-0.4
		S60.7,97.3,60.3,97.3z"/>
	<path class="st6" d="M63.6,97.3L63.6,97.3c-0.1-0.2-0.3-0.3-0.5-0.3H63c0-0.2-0.2-0.3-0.4-0.3s-0.3,0.1-0.4,0.3h-0.1
		c-0.1,0-0.3,0-0.4,0.1C61.6,97,61.5,97,61.3,97c-0.3,0-0.6,0.2-0.6,0.5S61,98,61.3,98c0.1,0,0.2,0,0.2,0c0.1,0.2,0.3,0.3,0.5,0.3
		c0.1,0,0.2,0,0.3-0.1c0.1,0.1,0.2,0.1,0.3,0.1c0.2,0,0.4-0.1,0.5-0.3c0.1,0.1,0.2,0.1,0.4,0.1c0.3,0,0.6-0.2,0.6-0.4
		S63.9,97.3,63.6,97.3z"/>
	<path class="st6" d="M66.8,97.3L66.8,97.3c-0.1-0.2-0.3-0.3-0.5-0.3h-0.1c0-0.2-0.2-0.3-0.4-0.3s-0.3,0.1-0.4,0.3h-0.1
		c-0.1,0-0.3,0-0.4,0.1C64.8,97,64.7,97,64.5,97c-0.3,0-0.6,0.2-0.6,0.5s0.3,0.5,0.6,0.5c0.1,0,0.2,0,0.2,0c0.1,0.2,0.3,0.3,0.5,0.3
		c0.1,0,0.2,0,0.3-0.1c0.1,0.1,0.2,0.1,0.3,0.1c0.2,0,0.4-0.1,0.5-0.3c0.1,0.1,0.2,0.1,0.4,0.1c0.3,0,0.6-0.2,0.6-0.4
		S67.2,97.3,66.8,97.3z"/>
</g>
<g>
	<g>
		<path class="st2" d="M187.2,131.8c-0.2,0-0.3,0-0.5,0c-0.5,0-0.9-0.1-1.2-0.2c-0.3,0.1-0.7,0.2-1.2,0.2c-0.6,0-1.1-0.1-1.4-0.3
			c-0.3,0.2-0.8,0.3-1.4,0.3c-0.6,0-1.2-0.2-1.5-0.4c-0.3,0.3-0.9,0.4-1.5,0.4s-1.1-0.1-1.4-0.3c-0.3,0.2-0.8,0.3-1.4,0.3
			c-0.2,0-0.4,0-0.6-0.1c0,0.1,0,0.2,0,0.2c0,1,0.8,1.9,1.9,1.9h8.2c1,0,1.9-0.8,1.9-1.9C187.2,131.9,187.2,131.9,187.2,131.8
			C187.2,131.9,187.2,131.8,187.2,131.8z"/>
	</g>
	<path class="st3" d="M187.2,130.1c0,0.3-0.2,0.5-0.5,0.5h-0.8c0.1,0.1,0.2,0.2,0.2,0.4c0,0.3-0.2,0.5-0.6,0.6
		c0.3,0.1,0.7,0.2,1.2,0.2c1,0,1.8-0.4,1.8-0.9C188.4,130.5,187.9,130.2,187.2,130.1z"/>
	<path class="st4" d="M183.1,130.6c0.1,0.1,0.2,0.2,0.2,0.4c0,0.2-0.1,0.4-0.4,0.5c0.3,0.2,0.8,0.3,1.4,0.3c1,0,1.8-0.4,1.8-0.9
		c0-0.1-0.1-0.3-0.2-0.4h-2.8V130.6z"/>
	<path class="st2" d="M187.2,128.9c0-1-0.8-1.9-1.9-1.9c-0.5,0-1,0.2-1.4,0.6c-0.3-0.4-0.8-0.6-1.4-0.6c-0.5,0-1,0.2-1.4,0.6
		c-0.3-0.4-0.8-0.6-1.4-0.6c-0.5,0-1,0.2-1.4,0.6c-0.3-0.4-0.8-0.6-1.4-0.6c-1,0-1.9,0.8-1.9,1.9v0.1l0,0v1c0,0.3,0.2,0.5,0.5,0.5
		h11c0.3,0,0.5-0.2,0.5-0.5v-1C187.2,129.1,187.2,129,187.2,128.9C187.2,129,187.2,129,187.2,128.9z"/>
	<path class="st3" d="M175.7,130.6c-0.3,0-0.5-0.2-0.5-0.4c-0.7,0.1-1.1,0.4-1.1,0.8c0,0.5,0.8,0.9,1.8,0.9s1.8-0.4,1.8-0.9
		c0-0.1-0.1-0.3-0.2-0.4H175.7z"/>
	<path class="st4" d="M177.4,130.6c0.1,0.1,0.2,0.2,0.2,0.4c0,0.2-0.1,0.4-0.4,0.5c0.3,0.2,0.8,0.3,1.4,0.3c1,0,1.8-0.4,1.8-0.9
		c0-0.1-0.1-0.3-0.2-0.4h-2.8V130.6z"/>
	<path class="st3" d="M180.2,130.6c0.1,0.1,0.2,0.2,0.2,0.4c0,0.2-0.1,0.3-0.2,0.4c0.3,0.3,0.9,0.4,1.5,0.4c1,0,1.8-0.4,1.8-0.9
		c0-0.1-0.1-0.3-0.2-0.4h-3.1V130.6z"/>
	<circle class="st5" cx="176.8" cy="132.6" r="0.2"/>
	<circle class="st5" cx="178.1" cy="133.1" r="0.2"/>
	<circle class="st5" cx="179.1" cy="132.6" r="0.2"/>
	<circle class="st5" cx="179.8" cy="133.1" r="0.2"/>
	<circle class="st5" cx="180.8" cy="132.6" r="0.2"/>
	<circle class="st5" cx="181.8" cy="133.1" r="0.2"/>
	<circle class="st5" cx="182.8" cy="132.3" r="0.2"/>
	<circle class="st5" cx="183.6" cy="133.1" r="0.2"/>
	<circle class="st5" cx="184.8" cy="132.6" r="0.2"/>
	<circle class="st5" cx="185.8" cy="132.8" r="0.2"/>
	<path class="st5" d="M178.1,129.4c-0.1,0-0.2-0.1-0.2-0.2c0-1.2,1-2.1,2.1-2.1c0.1,0,0.2,0.1,0.2,0.2s-0.1,0.2-0.2,0.2
		c-0.9,0-1.6,0.7-1.6,1.6C178.3,129.3,178.2,129.4,178.1,129.4z"/>
	<path class="st5" d="M180.7,129.4c-0.1,0-0.2-0.1-0.2-0.2c0-1.2,1-2.1,2.1-2.1c0.1,0,0.2,0.1,0.2,0.2s-0.1,0.2-0.2,0.2
		c-0.9,0-1.6,0.7-1.6,1.6C180.9,129.3,180.8,129.4,180.7,129.4z"/>
	<g>
		<path class="st2" d="M183.4,129.2c0-1,0.8-1.9,1.9-1.9"/>
		<path class="st5" d="M183.4,129.4c-0.1,0-0.2-0.1-0.2-0.2c0-1.2,1-2.1,2.1-2.1c0.1,0,0.2,0.1,0.2,0.2s-0.1,0.2-0.2,0.2
			c-0.9,0-1.6,0.7-1.6,1.6C183.7,129.3,183.6,129.4,183.4,129.4z"/>
	</g>
	<path class="st6" d="M177.7,130.1L177.7,130.1c-0.1-0.2-0.3-0.3-0.5-0.3h-0.1c0-0.2-0.2-0.3-0.4-0.3s-0.3,0.1-0.4,0.3h-0.1
		c-0.1,0-0.3,0-0.4,0.1c-0.1-0.1-0.2-0.1-0.4-0.1c-0.3,0-0.6,0.2-0.6,0.5s0.3,0.5,0.6,0.5c0.1,0,0.2,0,0.2,0
		c0.1,0.2,0.3,0.3,0.5,0.3c0.1,0,0.2,0,0.3-0.1c0.1,0.1,0.2,0.1,0.3,0.1c0.2,0,0.4-0.1,0.5-0.3c0.1,0.1,0.2,0.1,0.4,0.1
		c0.3,0,0.6-0.2,0.6-0.4S178,130.1,177.7,130.1z"/>
	<path class="st6" d="M180.7,130.1L180.7,130.1c-0.1-0.2-0.3-0.3-0.5-0.3h-0.1c0-0.2-0.2-0.3-0.4-0.3s-0.3,0.1-0.4,0.3h-0.1
		c-0.1,0-0.3,0-0.4,0.1c-0.1-0.1-0.2-0.1-0.4-0.1c-0.3,0-0.6,0.2-0.6,0.5s0.3,0.5,0.6,0.5c0.1,0,0.2,0,0.2,0
		c0.1,0.2,0.3,0.3,0.5,0.3c0.1,0,0.2,0,0.3-0.1c0.1,0.1,0.2,0.1,0.3,0.1c0.2,0,0.4-0.1,0.5-0.3c0.1,0.1,0.2,0.1,0.4,0.1
		c0.3,0,0.6-0.2,0.6-0.4S181,130.1,180.7,130.1z"/>
	<path class="st6" d="M183.9,130.1L183.9,130.1c-0.1-0.2-0.3-0.3-0.5-0.3h-0.1c0-0.2-0.2-0.3-0.4-0.3s-0.3,0.1-0.4,0.3h-0.1
		c-0.1,0-0.3,0-0.4,0.1c-0.1-0.1-0.2-0.1-0.4-0.1c-0.3,0-0.6,0.2-0.6,0.5s0.3,0.5,0.6,0.5c0.1,0,0.2,0,0.2,0
		c0.1,0.2,0.3,0.3,0.5,0.3c0.1,0,0.2,0,0.3-0.1c0.1,0.1,0.2,0.1,0.3,0.1c0.2,0,0.4-0.1,0.5-0.3c0.1,0.1,0.2,0.1,0.4,0.1
		c0.3,0,0.6-0.2,0.6-0.4S184.3,130.1,183.9,130.1z"/>
	<path class="st6" d="M187.2,130.1L187.2,130.1c-0.1-0.2-0.3-0.3-0.5-0.3h-0.1c0-0.2-0.2-0.3-0.4-0.3s-0.3,0.1-0.4,0.3h-0.1
		c-0.1,0-0.3,0-0.4,0.1c-0.1-0.1-0.2-0.1-0.4-0.1c-0.3,0-0.6,0.2-0.6,0.5s0.3,0.5,0.6,0.5c0.1,0,0.2,0,0.2,0
		c0.1,0.2,0.3,0.3,0.5,0.3c0.1,0,0.2,0,0.3-0.1c0.1,0.1,0.2,0.1,0.3,0.1c0.2,0,0.4-0.1,0.5-0.3c0.1,0.1,0.2,0.1,0.4,0.1
		c0.3,0,0.6-0.2,0.6-0.4S187.5,130.1,187.2,130.1z"/>
</g>
<g>
	<g>
		<path class="st2" d="M201.6,176.3c-0.2,0-0.3,0-0.5,0c-0.5,0-0.9-0.1-1.2-0.2c-0.3,0.1-0.7,0.2-1.2,0.2c-0.6,0-1.1-0.1-1.4-0.3
			c-0.3,0.2-0.8,0.3-1.4,0.3c-0.6,0-1.2-0.2-1.5-0.4c-0.3,0.3-0.9,0.4-1.5,0.4s-1.1-0.1-1.4-0.3c-0.3,0.2-0.8,0.3-1.4,0.3
			c-0.2,0-0.4,0-0.6-0.1c0,0.1,0,0.2,0,0.2c0,1,0.8,1.9,1.9,1.9h8.2c1,0,1.9-0.8,1.9-1.9C201.6,176.4,201.6,176.4,201.6,176.3
			C201.6,176.4,201.6,176.3,201.6,176.3z"/>
	</g>
	<path class="st3" d="M201.6,174.6c0,0.3-0.2,0.5-0.5,0.5h-0.8c0.1,0.1,0.2,0.2,0.2,0.4c0,0.3-0.2,0.5-0.6,0.6
		c0.3,0.1,0.7,0.2,1.2,0.2c1,0,1.8-0.4,1.8-0.9C202.8,175.1,202.3,174.7,201.6,174.6z"/>
	<path class="st4" d="M197.5,175.1c0.1,0.1,0.2,0.2,0.2,0.4c0,0.2-0.1,0.4-0.4,0.5c0.3,0.2,0.8,0.3,1.4,0.3c1,0,1.8-0.4,1.8-0.9
		c0-0.1-0.1-0.3-0.2-0.4h-2.8V175.1z"/>
	<path class="st2" d="M201.6,173.5c0-1-0.8-1.9-1.9-1.9c-0.5,0-1,0.2-1.4,0.6c-0.3-0.4-0.8-0.6-1.4-0.6c-0.5,0-1,0.2-1.4,0.6
		c-0.3-0.4-0.8-0.6-1.4-0.6c-0.5,0-1,0.2-1.4,0.6c-0.3-0.4-0.8-0.6-1.4-0.6c-1,0-1.9,0.8-1.9,1.9v0.1l0,0v1c0,0.3,0.2,0.5,0.5,0.5
		h11c0.3,0,0.5-0.2,0.5-0.5v-1C201.6,173.6,201.6,173.6,201.6,173.5L201.6,173.5z"/>
	<path class="st3" d="M190.1,175.1c-0.3,0-0.5-0.2-0.5-0.4c-0.7,0.1-1.1,0.4-1.1,0.8c0,0.5,0.8,0.9,1.8,0.9s1.8-0.4,1.8-0.9
		c0-0.1-0.1-0.3-0.2-0.4H190.1z"/>
	<path class="st4" d="M191.8,175.1c0.1,0.1,0.2,0.2,0.2,0.4c0,0.2-0.1,0.4-0.4,0.5c0.3,0.2,0.8,0.3,1.4,0.3c1,0,1.8-0.4,1.8-0.9
		c0-0.1-0.1-0.3-0.2-0.4h-2.8V175.1z"/>
	<path class="st3" d="M194.5,175.1c0.1,0.1,0.2,0.2,0.2,0.4c0,0.2-0.1,0.3-0.2,0.4c0.3,0.3,0.9,0.4,1.5,0.4c1,0,1.8-0.4,1.8-0.9
		c0-0.1-0.1-0.3-0.2-0.4h-3.1V175.1z"/>
	<circle class="st5" cx="191.2" cy="177.1" r="0.2"/>
	<circle class="st5" cx="192.4" cy="177.6" r="0.2"/>
	<circle class="st5" cx="193.4" cy="177.1" r="0.2"/>
	<circle class="st5" cx="194.2" cy="177.6" r="0.2"/>
	<circle class="st5" cx="195.2" cy="177.1" r="0.2"/>
	<circle class="st5" cx="196.2" cy="177.6" r="0.2"/>
	<circle class="st5" cx="197.2" cy="176.8" r="0.2"/>
	<circle class="st5" cx="197.9" cy="177.6" r="0.2"/>
	<circle class="st5" cx="199.2" cy="177.1" r="0.2"/>
	<circle class="st5" cx="200.2" cy="177.3" r="0.2"/>
	<path class="st5" d="M192.4,173.9c-0.1,0-0.2-0.1-0.2-0.2c0-1.2,1-2.1,2.1-2.1c0.1,0,0.2,0.1,0.2,0.2s-0.1,0.2-0.2,0.2
		c-0.9,0-1.6,0.7-1.6,1.6C192.7,173.8,192.6,173.9,192.4,173.9z"/>
	<path class="st5" d="M195.1,174c-0.1,0-0.2-0.1-0.2-0.2c0-1.2,1-2.1,2.1-2.1c0.1,0,0.2,0.1,0.2,0.2s-0.1,0.2-0.2,0.2
		c-0.9,0-1.6,0.7-1.6,1.6C195.3,173.8,195.2,174,195.1,174z"/>
	<g>
		<path class="st2" d="M197.8,173.7c0-1,0.8-1.9,1.9-1.9"/>
		<path class="st5" d="M197.8,174c-0.1,0-0.2-0.1-0.2-0.2c0-1.2,1-2.1,2.1-2.1c0.1,0,0.2,0.1,0.2,0.2s-0.1,0.2-0.2,0.2
			c-0.9,0-1.6,0.7-1.6,1.6C198.1,173.8,198,174,197.8,174z"/>
	</g>
	<path class="st6" d="M192.1,174.6L192.1,174.6c-0.1-0.2-0.3-0.3-0.5-0.3h-0.1c0-0.2-0.2-0.3-0.4-0.3s-0.3,0.1-0.4,0.3h-0.1
		c-0.1,0-0.3,0-0.4,0.1c-0.1-0.1-0.2-0.1-0.4-0.1c-0.3,0-0.6,0.2-0.6,0.5s0.3,0.5,0.6,0.5c0.1,0,0.2,0,0.2,0
		c0.1,0.2,0.3,0.3,0.5,0.3c0.1,0,0.2,0,0.3-0.1c0.1,0.1,0.2,0.1,0.3,0.1c0.2,0,0.4-0.1,0.5-0.3c0.1,0.1,0.2,0.1,0.4,0.1
		c0.3,0,0.6-0.2,0.6-0.4S192.4,174.6,192.1,174.6z"/>
	<path class="st6" d="M195.1,174.6L195.1,174.6c-0.1-0.2-0.3-0.3-0.5-0.3h-0.1c0-0.2-0.2-0.3-0.4-0.3s-0.3,0.1-0.4,0.3h-0.1
		c-0.1,0-0.3,0-0.4,0.1c-0.1-0.1-0.2-0.1-0.4-0.1c-0.3,0-0.6,0.2-0.6,0.5s0.3,0.5,0.6,0.5c0.1,0,0.2,0,0.2,0
		c0.1,0.2,0.3,0.3,0.5,0.3c0.1,0,0.2,0,0.3-0.1c0.1,0.1,0.2,0.1,0.3,0.1c0.2,0,0.4-0.1,0.5-0.3c0.1,0.1,0.2,0.1,0.4,0.1
		c0.3,0,0.6-0.2,0.6-0.4S195.4,174.6,195.1,174.6z"/>
	<path class="st6" d="M198.3,174.6L198.3,174.6c-0.1-0.2-0.3-0.3-0.5-0.3h-0.1c0-0.2-0.2-0.3-0.4-0.3s-0.3,0.1-0.4,0.3h-0.1
		c-0.1,0-0.3,0-0.4,0.1c-0.1-0.1-0.2-0.1-0.4-0.1c-0.3,0-0.6,0.2-0.6,0.5s0.3,0.5,0.6,0.5c0.1,0,0.2,0,0.2,0
		c0.1,0.2,0.3,0.3,0.5,0.3c0.1,0,0.2,0,0.3-0.1c0.1,0.1,0.2,0.1,0.3,0.1c0.2,0,0.4-0.1,0.5-0.3c0.1,0.1,0.2,0.1,0.4,0.1
		c0.3,0,0.6-0.2,0.6-0.4S198.7,174.6,198.3,174.6z"/>
	<path class="st6" d="M201.6,174.6L201.6,174.6c-0.1-0.2-0.3-0.3-0.5-0.3H201c0-0.2-0.2-0.3-0.4-0.3s-0.3,0.1-0.4,0.3h-0.1
		c-0.1,0-0.3,0-0.4,0.1c-0.1-0.1-0.2-0.1-0.4-0.1c-0.3,0-0.6,0.2-0.6,0.5s0.3,0.5,0.6,0.5c0.1,0,0.2,0,0.2,0
		c0.1,0.2,0.3,0.3,0.5,0.3c0.1,0,0.2,0,0.3-0.1c0.1,0.1,0.2,0.1,0.3,0.1c0.2,0,0.4-0.1,0.5-0.3c0.1,0.1,0.2,0.1,0.4,0.1
		c0.3,0,0.6-0.2,0.6-0.4S201.9,174.6,201.6,174.6z"/>
</g>
<g>
	<g>
		<path class="st2" d="M280,121.6c-0.2,0-0.3,0-0.5,0c-0.5,0-0.9-0.1-1.2-0.2c-0.3,0.1-0.7,0.2-1.2,0.2c-0.6,0-1.1-0.1-1.4-0.3
			c-0.3,0.2-0.8,0.3-1.4,0.3c-0.6,0-1.2-0.2-1.5-0.4c-0.3,0.3-0.9,0.4-1.5,0.4s-1.1-0.1-1.4-0.3c-0.3,0.2-0.8,0.3-1.4,0.3
			c-0.2,0-0.4,0-0.6-0.1c0,0.1,0,0.2,0,0.2c0,1,0.8,1.9,1.9,1.9h8.2c1,0,1.9-0.8,1.9-1.9C280,121.8,280,121.7,280,121.6
			C280,121.7,280,121.7,280,121.6z"/>
	</g>
	<path class="st3" d="M280,120c0,0.3-0.2,0.5-0.5,0.5h-0.8c0.1,0.1,0.2,0.2,0.2,0.4c0,0.3-0.2,0.5-0.6,0.6c0.3,0.1,0.7,0.2,1.2,0.2
		c1,0,1.8-0.4,1.8-0.9C281.3,120.4,280.7,120.1,280,120z"/>
	<path class="st4" d="M276,120.4c0.1,0.1,0.2,0.2,0.2,0.4c0,0.2-0.1,0.4-0.4,0.5c0.3,0.2,0.8,0.3,1.4,0.3c1,0,1.8-0.4,1.8-0.9
		c0-0.1-0.1-0.3-0.2-0.4H276V120.4z"/>
	<path class="st2" d="M280,118.8c0-1-0.8-1.9-1.9-1.9c-0.5,0-1,0.2-1.4,0.6c-0.3-0.4-0.8-0.6-1.4-0.6s-1,0.2-1.4,0.6
		c-0.3-0.4-0.8-0.6-1.4-0.6s-1,0.2-1.4,0.6c-0.3-0.4-0.8-0.6-1.4-0.6c-1,0-1.9,0.8-1.9,1.9v0.1l0,0v1c0,0.3,0.2,0.5,0.5,0.5h11
		c0.3,0,0.5-0.2,0.5-0.5v-1C280,118.9,280,118.9,280,118.8L280,118.8z"/>
	<path class="st3" d="M268.5,120.4c-0.3,0-0.5-0.2-0.5-0.4c-0.7,0.1-1.1,0.4-1.1,0.8c0,0.5,0.8,0.9,1.8,0.9s1.8-0.4,1.8-0.9
		c0-0.1-0.1-0.3-0.2-0.4H268.5z"/>
	<path class="st4" d="M270.2,120.4c0.1,0.1,0.2,0.2,0.2,0.4c0,0.2-0.1,0.4-0.4,0.5c0.3,0.2,0.8,0.3,1.4,0.3c1,0,1.8-0.4,1.8-0.9
		c0-0.1-0.1-0.3-0.2-0.4h-2.8V120.4z"/>
	<path class="st3" d="M273,120.4c0.1,0.1,0.2,0.2,0.2,0.4c0,0.2-0.1,0.3-0.2,0.4c0.3,0.3,0.9,0.4,1.5,0.4c1,0,1.8-0.4,1.8-0.9
		c0-0.1-0.1-0.3-0.2-0.4H273V120.4z"/>
	<circle class="st5" cx="269.6" cy="122.4" r="0.2"/>
	<circle class="st5" cx="270.9" cy="122.9" r="0.2"/>
	<circle class="st5" cx="271.9" cy="122.4" r="0.2"/>
	<circle class="st5" cx="272.6" cy="122.9" r="0.2"/>
	<circle class="st5" cx="273.6" cy="122.4" r="0.2"/>
	<circle class="st5" cx="274.6" cy="122.9" r="0.2"/>
	<circle class="st5" cx="275.6" cy="122.2" r="0.2"/>
	<circle class="st5" cx="276.4" cy="122.9" r="0.2"/>
	<circle class="st5" cx="277.6" cy="122.4" r="0.2"/>
	<circle class="st5" cx="278.6" cy="122.7" r="0.2"/>
	<path class="st5" d="M270.9,119.3c-0.1,0-0.2-0.1-0.2-0.2c0-1.2,1-2.1,2.1-2.1c0.1,0,0.2,0.1,0.2,0.2s-0.1,0.2-0.2,0.2
		c-0.9,0-1.6,0.7-1.6,1.6C271.1,119.2,271,119.3,270.9,119.3z"/>
	<path class="st5" d="M273.5,119.3c-0.1,0-0.2-0.1-0.2-0.2c0-1.2,1-2.1,2.1-2.1c0.1,0,0.2,0.1,0.2,0.2s-0.1,0.2-0.2,0.2
		c-0.9,0-1.6,0.7-1.6,1.6C273.8,119.2,273.6,119.3,273.5,119.3z"/>
	<g>
		<path class="st2" d="M276.3,119c0-1,0.8-1.9,1.9-1.9"/>
		<path class="st5" d="M276.3,119.3c-0.1,0-0.2-0.1-0.2-0.2c0-1.2,1-2.1,2.1-2.1c0.1,0,0.2,0.1,0.2,0.2s-0.1,0.2-0.2,0.2
			c-0.9,0-1.6,0.7-1.6,1.6C276.5,119.2,276.4,119.3,276.3,119.3z"/>
	</g>
	<path class="st6" d="M270.5,119.9L270.5,119.9c-0.1-0.2-0.3-0.3-0.5-0.3h-0.1c0-0.2-0.2-0.3-0.4-0.3s-0.3,0.1-0.4,0.3H269
		c-0.1,0-0.3,0-0.4,0.1c-0.1-0.1-0.2-0.1-0.4-0.1c-0.3,0-0.6,0.2-0.6,0.5s0.3,0.5,0.6,0.5c0.1,0,0.2,0,0.2,0
		c0.1,0.2,0.3,0.3,0.5,0.3c0.1,0,0.2,0,0.3-0.1c0.1,0.1,0.2,0.1,0.3,0.1c0.2,0,0.4-0.1,0.5-0.3c0.1,0.1,0.2,0.1,0.4,0.1
		c0.3,0,0.6-0.2,0.6-0.4S270.8,119.9,270.5,119.9z"/>
	<path class="st6" d="M273.5,119.9L273.5,119.9c-0.1-0.2-0.3-0.3-0.5-0.3h-0.1c0-0.2-0.2-0.3-0.4-0.3s-0.3,0.1-0.4,0.3H272
		c-0.1,0-0.3,0-0.4,0.1c-0.1-0.1-0.2-0.1-0.4-0.1c-0.3,0-0.6,0.2-0.6,0.5s0.3,0.5,0.6,0.5c0.1,0,0.2,0,0.2,0
		c0.1,0.2,0.3,0.3,0.5,0.3c0.1,0,0.2,0,0.3-0.1c0.1,0.1,0.2,0.1,0.3,0.1c0.2,0,0.4-0.1,0.5-0.3c0.1,0.1,0.2,0.1,0.4,0.1
		c0.3,0,0.6-0.2,0.6-0.4S273.8,119.9,273.5,119.9z"/>
	<path class="st6" d="M276.8,119.9L276.8,119.9c-0.1-0.2-0.3-0.3-0.5-0.3h-0.1c0-0.2-0.2-0.3-0.4-0.3s-0.3,0.1-0.4,0.3h-0.1
		c-0.1,0-0.3,0-0.4,0.1c-0.1-0.1-0.2-0.1-0.4-0.1c-0.3,0-0.6,0.2-0.6,0.5s0.3,0.5,0.6,0.5c0.1,0,0.2,0,0.2,0
		c0.1,0.2,0.3,0.3,0.5,0.3c0.1,0,0.2,0,0.3-0.1c0.1,0.1,0.2,0.1,0.3,0.1c0.2,0,0.4-0.1,0.5-0.3c0.1,0.1,0.2,0.1,0.4,0.1
		c0.3,0,0.6-0.2,0.6-0.4S277.1,119.9,276.8,119.9z"/>
	<path class="st6" d="M280,119.9L280,119.9c-0.1-0.2-0.3-0.3-0.5-0.3h-0.1c0-0.2-0.2-0.3-0.4-0.3s-0.3,0.1-0.4,0.3h-0.1
		c-0.1,0-0.3,0-0.4,0.1c-0.1-0.1-0.2-0.1-0.4-0.1c-0.3,0-0.6,0.2-0.6,0.5s0.3,0.5,0.6,0.5c0.1,0,0.2,0,0.2,0
		c0.1,0.2,0.3,0.3,0.5,0.3c0.1,0,0.2,0,0.3-0.1c0.1,0.1,0.2,0.1,0.3,0.1c0.2,0,0.4-0.1,0.5-0.3c0.1,0.1,0.2,0.1,0.4,0.1
		c0.3,0,0.6-0.2,0.6-0.4S280.3,119.9,280,119.9z"/>
</g>
<g>
	<g>
		<path class="st2" d="M272.8,309c-0.2,0-0.3,0-0.5,0c-0.5,0-0.9-0.1-1.2-0.2c-0.3,0.1-0.7,0.2-1.2,0.2c-0.6,0-1.1-0.1-1.4-0.3
			c-0.3,0.2-0.8,0.3-1.4,0.3c-0.6,0-1.2-0.2-1.5-0.4c-0.3,0.3-0.9,0.4-1.5,0.4s-1.1-0.1-1.4-0.3c-0.3,0.2-0.8,0.3-1.4,0.3
			c-0.2,0-0.4,0-0.6-0.1c0,0.1,0,0.2,0,0.2c0,1,0.8,1.9,1.9,1.9h8.2c1,0,1.9-0.8,1.9-1.9C272.8,309.1,272.8,309.1,272.8,309
			C272.8,309.1,272.8,309,272.8,309z"/>
	</g>
	<path class="st3" d="M272.8,307.3c0,0.3-0.2,0.5-0.5,0.5h-0.8c0.1,0.1,0.2,0.2,0.2,0.4c0,0.3-0.2,0.5-0.6,0.6
		c0.3,0.1,0.7,0.2,1.2,0.2c1,0,1.8-0.4,1.8-0.9C274.1,307.8,273.5,307.4,272.8,307.3z"/>
	<path class="st4" d="M268.8,307.8c0.1,0.1,0.2,0.2,0.2,0.4c0,0.2-0.1,0.4-0.4,0.5c0.3,0.2,0.8,0.3,1.4,0.3c1,0,1.8-0.4,1.8-0.9
		c0-0.1-0.1-0.3-0.2-0.4h-2.8V307.8z"/>
	<path class="st2" d="M272.8,306.2c0-1-0.8-1.9-1.9-1.9c-0.5,0-1,0.2-1.4,0.6c-0.3-0.4-0.8-0.6-1.4-0.6s-1,0.2-1.4,0.6
		c-0.3-0.4-0.8-0.6-1.4-0.6s-1,0.2-1.4,0.6c-0.3-0.4-0.8-0.6-1.4-0.6c-1,0-1.9,0.8-1.9,1.9v0.1l0,0v1c0,0.3,0.2,0.5,0.5,0.5h11
		c0.3,0,0.5-0.2,0.5-0.5v-1C272.8,306.3,272.8,306.3,272.8,306.2L272.8,306.2z"/>
	<path class="st3" d="M261.3,307.8c-0.3,0-0.5-0.2-0.5-0.4c-0.7,0.1-1.1,0.4-1.1,0.8c0,0.5,0.8,0.9,1.8,0.9s1.8-0.4,1.8-0.9
		c0-0.1-0.1-0.3-0.2-0.4H261.3z"/>
	<path class="st4" d="M263,307.8c0.1,0.1,0.2,0.2,0.2,0.4c0,0.2-0.1,0.4-0.4,0.5c0.3,0.2,0.8,0.3,1.4,0.3c1,0,1.8-0.4,1.8-0.9
		c0-0.1-0.1-0.3-0.2-0.4H263V307.8z"/>
	<path class="st3" d="M265.8,307.8c0.1,0.1,0.2,0.2,0.2,0.4c0,0.2-0.1,0.3-0.2,0.4c0.3,0.3,0.9,0.4,1.5,0.4c1,0,1.8-0.4,1.8-0.9
		c0-0.1-0.1-0.3-0.2-0.4h-3.1V307.8z"/>
	<circle class="st5" cx="262.4" cy="309.8" r="0.2"/>
	<circle class="st5" cx="263.7" cy="310.3" r="0.2"/>
	<circle class="st5" cx="264.7" cy="309.8" r="0.2"/>
	<circle class="st5" cx="265.4" cy="310.3" r="0.2"/>
	<circle class="st5" cx="266.4" cy="309.8" r="0.2"/>
	<circle class="st5" cx="267.4" cy="310.3" r="0.2"/>
	<circle class="st5" cx="268.4" cy="309.5" r="0.2"/>
	<circle class="st5" cx="269.2" cy="310.3" r="0.2"/>
	<circle class="st5" cx="270.4" cy="309.8" r="0.2"/>
	<circle class="st5" cx="271.4" cy="310" r="0.2"/>
	<path class="st5" d="M263.7,306.6c-0.1,0-0.2-0.1-0.2-0.2c0-1.2,1-2.1,2.1-2.1c0.1,0,0.2,0.1,0.2,0.2s-0.1,0.2-0.2,0.2
		c-0.9,0-1.6,0.7-1.6,1.6C263.9,306.5,263.8,306.6,263.7,306.6z"/>
	<path class="st5" d="M266.3,306.7c-0.1,0-0.2-0.1-0.2-0.2c0-1.2,1-2.1,2.1-2.1c0.1,0,0.2,0.1,0.2,0.2s-0.1,0.2-0.2,0.2
		c-0.9,0-1.6,0.7-1.6,1.6C266.6,306.5,266.5,306.7,266.3,306.7z"/>
	<g>
		<path class="st2" d="M269.1,306.4c0-1,0.8-1.9,1.9-1.9"/>
		<path class="st5" d="M269.1,306.7c-0.1,0-0.2-0.1-0.2-0.2c0-1.2,1-2.1,2.1-2.1c0.1,0,0.2,0.1,0.2,0.2s-0.1,0.2-0.2,0.2
			c-0.9,0-1.6,0.7-1.6,1.6C269.3,306.5,269.2,306.7,269.1,306.7z"/>
	</g>
	<path class="st6" d="M263.3,307.3L263.3,307.3c-0.1-0.2-0.3-0.3-0.5-0.3h-0.1c0-0.2-0.2-0.3-0.4-0.3s-0.3,0.1-0.4,0.3h-0.1
		c-0.1,0-0.3,0-0.4,0.1c-0.1-0.1-0.2-0.1-0.4-0.1c-0.3,0-0.6,0.2-0.6,0.5s0.3,0.5,0.6,0.5c0.1,0,0.2,0,0.2,0
		c0.1,0.2,0.3,0.3,0.5,0.3c0.1,0,0.2,0,0.3-0.1c0.1,0.1,0.2,0.1,0.3,0.1c0.2,0,0.4-0.1,0.5-0.3c0.1,0.1,0.2,0.1,0.4,0.1
		c0.3,0,0.6-0.2,0.6-0.4S263.7,307.3,263.3,307.3z"/>
	<path class="st6" d="M266.3,307.3L266.3,307.3c-0.1-0.2-0.3-0.3-0.5-0.3h-0.1c0-0.2-0.2-0.3-0.4-0.3s-0.3,0.1-0.4,0.3h-0.1
		c-0.1,0-0.3,0-0.4,0.1c-0.1-0.1-0.2-0.1-0.4-0.1c-0.3,0-0.6,0.2-0.6,0.5s0.3,0.5,0.6,0.5c0.1,0,0.2,0,0.2,0
		c0.1,0.2,0.3,0.3,0.5,0.3c0.1,0,0.2,0,0.3-0.1c0.1,0.1,0.2,0.1,0.3,0.1c0.2,0,0.4-0.1,0.5-0.3c0.1,0.1,0.2,0.1,0.4,0.1
		c0.3,0,0.6-0.2,0.6-0.4S266.7,307.3,266.3,307.3z"/>
	<path class="st6" d="M269.6,307.3L269.6,307.3c-0.1-0.2-0.3-0.3-0.5-0.3H269c0-0.2-0.2-0.3-0.4-0.3s-0.3,0.1-0.4,0.3h-0.1
		c-0.1,0-0.3,0-0.4,0.1c-0.1-0.1-0.2-0.1-0.4-0.1c-0.3,0-0.6,0.2-0.6,0.5s0.3,0.5,0.6,0.5c0.1,0,0.2,0,0.2,0
		c0.1,0.2,0.3,0.3,0.5,0.3c0.1,0,0.2,0,0.3-0.1c0.1,0.1,0.2,0.1,0.3,0.1c0.2,0,0.4-0.1,0.5-0.3c0.1,0.1,0.2,0.1,0.4,0.1
		c0.3,0,0.6-0.2,0.6-0.4S269.9,307.3,269.6,307.3z"/>
	<path class="st6" d="M272.8,307.3L272.8,307.3c-0.1-0.2-0.3-0.3-0.5-0.3h-0.1c0-0.2-0.2-0.3-0.4-0.3s-0.3,0.1-0.4,0.3h-0.1
		c-0.1,0-0.3,0-0.4,0.1c-0.1-0.1-0.2-0.1-0.4-0.1c-0.3,0-0.6,0.2-0.6,0.5s0.3,0.5,0.6,0.5c0.1,0,0.2,0,0.2,0
		c0.1,0.2,0.3,0.3,0.5,0.3c0.1,0,0.2,0,0.3-0.1c0.1,0.1,0.2,0.1,0.3,0.1c0.2,0,0.4-0.1,0.5-0.3c0.1,0.1,0.2,0.1,0.4,0.1
		c0.3,0,0.6-0.2,0.6-0.4S273.2,307.3,272.8,307.3z"/>
</g>
</svg>
