<?xml version="1.0" encoding="utf-8"?>
<!-- Generator: Adobe Illustrator 25.0.1, SVG Export Plug-In . SVG Version: 6.00 Build 0)  -->
<svg version="1.1"
	 id="Counties_of_California" inkscape:version="0.92.4 (5da689c313, 2019-01-14)" sodipodi:docname="California_Bay_Area_county_map_revised.svg" xmlns:cc="http://creativecommons.org/ns#" xmlns:dc="http://purl.org/dc/elements/1.1/" xmlns:inkscape="http://www.inkscape.org/namespaces/inkscape" xmlns:rdf="http://www.w3.org/1999/02/22-rdf-syntax-ns#" xmlns:sodipodi="http://sodipodi.sourceforge.net/DTD/sodipodi-0.dtd" xmlns:svg="http://www.w3.org/2000/svg"
	 xmlns="http://www.w3.org/2000/svg" xmlns:xlink="http://www.w3.org/1999/xlink" x="0px" y="0px" viewBox="0 0 891.3 733"
	 style="enable-background:new 0 0 891.3 733;" xml:space="preserve">
<style type="text/css">
	.st0{fill:#C87778;stroke:#FFFFFF;stroke-width:3.9063;stroke-miterlimit:3.9063;}
	.st1{fill:#C87778;stroke:#FFFFFF;stroke-width:3.9063;stroke-miterlimit:1;}
	.st2{fill:#EEAF4B;}
	.st3{fill:#7A3726;}
	.st4{fill:#C56458;}
	.st5{fill:#FBD490;}
	.st6{fill:#88C057;}
</style>
<sodipodi:namedview  bordercolor="#666666" borderopacity="1" fit-margin-bottom="0" fit-margin-left="0" fit-margin-right="0" fit-margin-top="0" gridtolerance="10" guidetolerance="10" id="namedview62" inkscape:current-layer="Counties_of_California" inkscape:cx="431.14568" inkscape:cy="515.73895" inkscape:pageopacity="0" inkscape:pageshadow="2" inkscape:window-height="853" inkscape:window-maximized="0" inkscape:window-width="1440" inkscape:window-x="0" inkscape:window-y="0" inkscape:zoom="0.64390536" objecttolerance="10" pagecolor="#ffffff" showgrid="false">
	</sodipodi:namedview>
<polyline id="_x30_01_Alameda-5" class="st0" points="810.3,323.1 810.7,324.5 810.4,329.3 810.7,330.8 809.6,332.6 810.7,337 
	809.3,337.4 809.7,338.8 810.4,341.7 809.7,345 810,346.4 810.4,347.8 809,354.4 809.8,357.4 809.5,368.3 808.7,377.7 808.8,384 
	809.5,393 808.8,396.3 809.2,404 808.2,405.8 809.9,406.9 810.3,408.3 810.7,409.7 812.2,409.3 815.5,410.1 815.8,411.5 
	817.3,411.2 820.6,412 822,411.6 822.3,413 820.9,413.4 821.3,414.8 822.7,414.4 823.1,415.9 822.1,417.7 823.8,418.9 825.4,418.5 
	825.7,419.9 827.1,419.5 827.5,420.9 827.9,422.4 829.3,422.1 827.2,425.8 739.5,421.8 733.8,423.2 734.1,424.6 732.6,425 
	733,426.5 731.6,426.9 731.2,425.4 729.7,425.8 730.1,427.3 722.8,429.1 723.2,430.5 721.7,430.9 721.4,429.5 720,429.8 
	719.6,428.3 718.1,428.7 717.7,427.3 717.3,425.8 715.9,426.1 716.3,427.7 710.5,429.2 703.2,424.8 695.2,423.7 692.2,418.3 
	688.2,414.7 686.8,415.1 683.5,414.3 678.7,401.6 672.8,390.7 670.9,377.3 671.6,367.7 665.7,356.9 661.4,351.8 656.6,351.5 
	655.8,348.5 652.3,346.4 653.3,344.5 653,343.1 659.2,343 660.2,341.3 658.4,340.1 644.5,334.4 632.9,331.1 631.1,323.9 
	632.8,318.8 637.9,314.4 638.6,311.2 638.6,304.9 637.1,299.1 634.9,296.6 634.5,295.1 636,294.7 637.4,294.4 638.9,294 
	639.3,295.5 640.7,295.2 642.1,294.8 641.8,293.3 643.3,292.9 644.7,292.5 645.1,294 646.6,293.7 647,295.1 647.3,296.5 
	648.7,296.1 649.1,297.6 649.5,299 649.9,300.6 651.3,300.2 652.8,299.8 653.1,301.2 654.6,300.9 654.9,302.3 656.8,303.4 
	657.2,304.8 655.7,305.2 656.4,308.1 657.9,307.8 658.3,309.2 659.7,308.8 660.1,310.3 660.5,311.7 660.8,313.3 662.2,312.9 
	662.6,314.3 664.1,313.9 664.5,315.3 663,315.7 663.3,317.2 663.7,318.7 664.1,320.2 665.6,319.8 666,321.2 667.4,320.8 
	670.3,320.1 672.1,321.1 672.5,322.7 672.8,324.1 674.3,323.7 674.7,325.2 676.1,324.9 679.4,325.5 680.8,325.2 682.3,324.8 
	685.6,325.4 687,325.1 690.4,325.9 692.1,326.9 695.1,326.2 697.2,328.7 698.7,328.3 699.1,329.7 700.9,330.9 702.7,331.9 
	705.3,335.9 707.1,337.1 703.1,339.6 703.8,342.5 706.1,345.1 707.5,344.7 707.9,346.1 709.7,347.3 711.2,346.9 711.5,348.3 
	713,347.9 715.2,350.5 757.3,339.8 764.1,336.4 800.5,327.1 800.1,325.7 810.3,323.1 "/>
<path id="_x30_13_Contra_Costa-2" inkscape:connector-curvature="0" class="st1" d="M807.5,246.4l-2.8,0.7l0.7,2.9l-1.5,0.4l1.1,4.3
	l-1.4,0.4l1.1,4.3l1.4-0.4l-0.7-2.9l1.5-0.4l0.7,2.9l1.4-0.4l1.1,4.3l-1.4,0.4l0.4,1.5l-4.4,1.1l0.4,1.4l2.9-0.7l0.4,1.5l-2.9,0.7
	l0.7,2.8l-1.4,0.4l0.4,1.5l1.4-0.4l0.4,1.4l-1.4,0.4l0.4,1.5l1.4-0.4l0.4,1.4l-1.4,0.4l0.4,1.4l1.4-0.4l0.4,1.5l-2.8,0.7l1.8,1.1
	l0.7,2.9l1.1-1.8l0.4,1.4l0.4,1.4l-1.4,0.4l0.4,1.5l1.4-0.4l0.4,1.4l-1.4,0.4l0.4,1.5l1.4-0.4l0.4,1.4l-2.8,0.7l0.7,2.9l-2.9,0.7
	l0.4,1.4l1.4-0.4l0.4,1.5l-1.4,0.4l0.4,1.4l-1.5,0.4l0.7,2.9l-1.4,0.4l0.4,1.4l-1.4,0.4l0.4,1.5l1.4-0.4l0.4,1.4l-1.4,0.4l0.4,1.4
	l1.4-0.4l0.4,1.5l4.3-1.1l0.4,1.4l1.5-0.4l0.4,1.5l1.4-0.4l0.4,1.4l-1.4,0.4l0.7,2.9l-4.4,1.1l0.7,2.9l-1.4,0.4l0.4,1.4l-1.4,0.4
	l-8.8,2.2l0.4,1.4l-36.3,9.3l-6.9,3.4l-34.8,8.9l-7.2,1.9l-2.3-2.5l-1.4,0.4l-0.4-1.4l-1.5,0.4l-1.8-1.1l-0.4-1.4l-1.4,0.4l-2.3-2.5
	l-0.7-2.9l4-2.5l-1.8-1.2l-2.5-4l-1.9-1l-1.8-1.2l-0.4-1.4l-1.5,0.4l-2.1-2.5l-2.9,0.7l-1.8-1.1l-3.3-0.8l-1.4,0.4l-3.3-0.7
	l-1.5,0.4l-1.4,0.4l-3.3-0.7l-1.4,0.4l-0.4-1.5l-1.5,0.4l-0.4-1.4l-0.4-1.5l-1.8-1l-2.9,0.7l-1.4,0.4l-0.4-1.4l-1.5,0.4l-0.4-1.5
	l-0.4-1.4l-0.4-1.5l1.5-0.4l-0.4-1.4l-1.5,0.4L662,313l-1.4,0.4l-0.4-1.5l-0.4-1.4l-0.4-1.5l-1.4,0.4l-0.4-1.4l-1.5,0.4l-0.7-2.9
	l1.5-0.4l-0.4-1.4l-1.9-1.1l-0.4-1.4l-1.4,0.4l-0.4-1.4l-1.5,0.4l-1.4,0.4l-0.4-1.5l-0.4-1.4l-0.4-1.5l-1.4,0.4l-0.4-1.4l-0.4-1.4
	l-1.5,0.4l-0.4-1.5l-1.4,0.4l-1.5,0.4l0.4,1.5l-1.4,0.4l-1.4,0.4l-0.4-1.5l-1.5,0.4l-1.4,0.4l-1.5,0.4l-2.2-2.6l-5.1-1.7l-6.2,0
	l-1.4,0.4l-3-5.4l-2.6-4.1l-0.4-1.4l1.1-1.8l4-2.7l4.3-7.2l1.4-6.6l1.1-1.8l6.6,1.3l7.2-1.9l6.5-4.7l9.4-5.5l5.1,1.8l6.6,1.4l4,3.7
	l5.2,1.7l16.3-2.5l8.3-3.7l7.3-1.9l5.6,3.3l8,1l18.2,4.7l19.7,4.2l20.7,2.5l4.3-1.1l-2.2-2.6l-3.6-2.1l5.5-3l3.6-4l0.3-4.7l0.4-4.7
	l2.8-0.7l9.1-0.8l6.5,1.5L807.5,246.4 M808.7,263.1l-0.4-1.4l-1.5,0.4l0.4,1.4L808.7,263.1"/>
<polyline id="_x30_41_Marin-3" class="st0" points="478.6,169.1 479.8,167.3 481.2,166.9 482.7,166.6 484.1,166.2 485.5,165.8 
	485.2,164.4 486.7,164 488.5,165.1 490.3,166.1 491.7,165.8 492.1,167.3 493.5,166.9 494.7,165 495.1,166.5 496.8,167.6 
	496.5,166.2 496.1,164.6 497.6,164.3 499,163.9 499.4,165.4 500.8,165 502.7,166.1 506.7,169.7 507.1,171.2 508.9,172.2 
	510.7,173.4 511,174.8 514.7,177 519.1,182 520.9,183.2 521.3,184.6 523.2,185.7 525.3,188.2 527.2,189.3 529.3,191.9 531.1,192.9 
	535.1,196.5 535.5,198.1 537.4,199.1 538.8,198.7 540.6,199.8 542.1,199.4 542.5,200.9 543.9,200.5 544.3,201.9 545.8,201.6 
	546.2,203.1 547.6,202.7 549,202.4 549.4,203.8 550.9,203.4 551.2,204.8 552.6,204.4 554.1,204.1 554.5,205.6 556,205.2 
	556.3,206.6 557.7,206.3 558.1,207.8 559.6,207.4 561,207 561.4,208.5 562.9,208.1 564.3,207.7 565.7,207.3 567.2,207 567.6,208.4 
	569,208 568.7,206.6 570.2,206.2 571.6,205.9 573,205.5 573.3,206.9 574.9,206.5 575.3,208 576.7,207.7 578.2,207.3 577,209.1 
	577.4,210.6 577.8,212 579.3,211.6 580.7,211.3 581.1,212.7 579.6,213.1 580,214.6 580.4,216 581.8,215.6 583.2,215.2 583.6,216.8 
	584,218.2 585.5,217.8 585.8,219.2 587.2,218.9 587.6,220.4 588,221.8 589.5,221.4 589.9,222.9 590.3,224.3 590.6,225.7 591,227.2 
	591.4,228.7 591.7,230.2 593.2,229.8 594.6,229.5 594.9,230.9 595.3,232.3 598.3,237.8 599,240.7 596.9,250.5 593.2,254.6 
	593.6,256 594.3,258.9 601.7,263.3 605.3,265.5 605.7,266.9 604.6,268.7 600.6,271.3 594.9,272.7 594.1,276.1 596.7,280 
	594.1,282.2 593,284.1 595.6,288 601.1,291.3 604.8,293.4 607.6,298.9 606.6,300.7 605.5,302.5 604,302.9 601.1,303.6 599.7,304 
	596.3,297.1 592,298.2 598.6,312 599,313.5 593.9,317.8 590.7,317.1 589.2,317.5 588.8,316.1 585.9,316.9 585.5,315.4 554.6,290.8 
	551.3,283.9 551.2,290 545.9,293 527.9,277.4 516.9,258.5 496.9,252.7 494.3,242.5 498,238.6 494,241.1 492.9,236.8 487.1,244.4 
	493.3,250.5 490,249.9 482.4,256.4 485.3,261.9 472.6,260.6 490.1,214.2 482.1,188.4 505.2,224.3 519.4,237.8 495.9,194.2 
	487.1,190.2 479,170.6 478.6,169.1 "/>
<polyline id="_x30_75_San_Francisco-5" class="st0" points="619.6,351.6 590.1,351.4 590.4,328.1 596.5,328 598,321.5 617.2,324.4 
	621.4,346.5 618.8,348.7 619.6,351.6 "/>
<polyline id="_x30_81_San_Mateo-7" class="st0" points="619.6,351.6 619.3,368.7 618.2,370.6 620.8,380.7 636.5,393.8 644.5,394.9 
	649.2,401.4 659.9,406.4 668.6,416.6 673.7,418.4 678.8,426.4 674.5,427.5 674.8,428.9 671.9,429.6 671.5,428.2 664.3,430.1 
	664.6,431.5 663.2,431.8 663.6,433.3 660.7,434.1 661.1,435.5 659.6,435.9 660,437.4 658.5,437.8 659.2,440.6 657.8,441 
	659.7,448.2 658.2,448.6 658.5,450.1 657.5,451.9 657.9,453.4 656.5,453.8 656.8,455.2 655.3,455.6 657.2,462.9 658.7,462.5 
	659.4,465.4 661.2,466.5 661.6,468 658.7,468.7 659.8,473.1 662.7,472.3 663,473.7 664.5,473.4 665.2,476.3 663.8,476.7 
	664.2,478.1 665.6,477.7 666,479.2 667.5,478.8 667.8,480.2 666.3,480.6 667.1,483.6 666.8,488.3 666.1,491.6 667.6,497.4 
	666.1,497.8 666.8,500.6 661.1,502.1 660.7,500.7 656.3,501.8 653.1,501.1 650.1,501.9 649.8,500.3 645.4,501.4 645.8,503 
	644.7,504.8 645.4,507.7 641,508.8 639.3,507.6 633.4,509.1 630.1,508.5 627.2,509.2 628,512.1 626.9,513.9 629.9,525.5 
	631.7,526.7 633.1,532.4 629.6,530.3 619.6,515.8 611.6,508.6 604.6,493.2 611.4,459 599.9,420.1 595.5,415.1 589.4,415.1 
	585.6,406.8 585.2,386.7 590.3,382.3 592.4,372.5 589,353.2 590.1,351.4 619.6,351.6 "/>
<path id="_x30_85_Santa_Clara-9" inkscape:connector-curvature="0" class="st1" d="M664.3,430.1l0.4,1.4l-1.4,0.4l0.4,1.5l-1.5,0.4
	l-1.5,0.4l0.4,1.4l-1.4,0.4l0.4,1.6l-1.5,0.4l0.4,1.4l0.4,1.4l-1.4,0.4l0.4,1.5l0.4,1.4l0.4,1.6l0.4,1.4l0.4,1.4l-1.5,0.4l0.4,1.5
	l-1.1,1.8l0.4,1.6l-1.4,0.4l0.4,1.4l-1.5,0.4l0.4,1.4l0.4,1.5l0.4,1.5l0.4,1.5l0.4,1.4l1.5-0.4l0.4,1.4l0.4,1.5l1.8,1.1l0.4,1.5
	l-1.4,0.4l-1.5,0.4l0.4,1.4l0.4,1.4l0.4,1.5l1.5-0.4l1.4-0.4l0.4,1.5l1.5-0.4l0.4,1.5l0.4,1.4l-1.5,0.4l0.4,1.4l1.5-0.4l0.4,1.5
	l1.5-0.4l0.4,1.5l0.4,1.5l-1.1,1.7l1.5-0.4l0.4,1.4l0.4,1.5l1.4-0.4l0.4,1.5l1.9,1.1l1.4-0.4l0.4,1.4l0.4,1.4l2.3,2.6l0.4,1.5
	l0.4,1.4l1.5-0.4l0.4,1.4l0.4,1.5l1.8,1.1l1.5-0.4l0.4,1.5l1.4-0.4l0.4,1.4l0.4,1.4l1.5-0.4l1.5-0.4l0.4,1.6l1.7,1.1l0.4,1.5
	l0.4,1.4l1.9,1.1l1.4-0.4l0.4,1.5l-1.4,0.4l0.4,1.4l0.4,1.5l0.4,1.4l0.4,1.4l1.4-0.4l0.4,1.6l1.4-0.4l0.4,1.4l1.6-0.4l0.4,1.5
	l1.4-0.4l0.4,1.4l0.4,1.4l0.4,1.6l1.5-0.4l0.4,1.4l1.4-0.4l1.5-0.4l0.4,1.5l1.9,1l0.4,1.4l1.4-0.4l0.4,1.6l1.5-0.4l1.7,1l1.5-0.4
	l0.4,1.5l1.5-0.4l3.6,2l0.4,1.6l1.4-0.4l1.5-0.4l0.4,1.4l1.9,1.1l1.4-0.4l1.9,1l2.8-0.7l0.4,1.4l0.4,1.6l1.6-0.4l1.4-0.4l0.4,1.4
	l0.4,1.5l1.5-0.4l0.4,1.4l1.4-0.4l1.4-0.4l0.4,1.5l0.4,1.5l0.4,1.4l1.6-0.4l0.4,1.5l0.4,1.4l1.4-0.4l1.9,1.1l1.8,1.1l0.4,1.4
	l1.4-0.4l1.9,1.1l1.5-0.4l0.4,1.4l1.5-0.4l0.4,1.5l0.7,2.9l0.4,1.5l1.4-0.4l0.4,1.4l1.8,1.2l1.9,1.1l0.4,1.4l1.9,1.1l-1.5,0.4
	l0.4,1.4l-2.5,2.2l0.4,1.5l-1.4,0.4l-1.1,1.8l1.5-0.4l3.9-2.5l0.4,1.4l1.5-0.4l-1.1,1.9l1.5-0.4l0.4,1.4l1.5-0.4l1.4-0.4l-1,1.9
	l0.4,1.5l-1.5,0.4l0.4,1.4l1.5-0.4l0.4,1.5l1.4-0.4l1.4-0.4l0.4,1.5l1.5-0.4l1.9,1l0.4,1.5l0.4,1.4l0.4,1.5l1.5-0.4l0.4,1.4l0.4,1.5
	l0.4,1.5l0.4,1.4l1.4-0.4l-0.4-1.4l1.4-0.4l1.5-0.4l1.5-0.4l0.4,1.4l3.7,2.2l1.7,1.1l1.5-0.4l0.4,1.5l1.9,1l-0.4,4.8l1.9,1.1
	l0.4,1.4l1.1-1.8l1.7,1l1-1.7l-0.7-2.9l1.5-0.4l1.4-0.4l2.6-2.2l-0.4-1.5l1.4-0.4l1.1-1.8l4-2.6l-0.4-1.4l1.4-0.4l-0.4-1.5l-0.4-1.5
	l1.2-1.8l1.1-1.9l1.5-0.4l2-3.6l3.6,2.2l1.5-0.4l-0.4-1.5l1.5-0.4l1.4-0.4l1.5-0.4l0.4,1.5l1.8,1.1l2,1l0.4,1.5l2.1,2.5l0.4,1.5
	l47.9,0.2l-0.4-1.5l-1.4,0.4l-0.4-1.5l-1.5,0.4l-0.4-1.4l-1.9-1.1l-0.4-1.4l-0.4-1.5l-0.4-1.5l1.2-1.8l1.5-0.4l1.4-0.4l-0.4-1.5
	l-0.4-1.4l-0.4-1.5l-0.4-1.5l-0.4-1.4l-1.4,0.4l-0.8-3l1.8,1.2l-0.4-1.5l1.5-0.4l1.4-0.4l1.5-0.4l-0.4-1.4l0.8-3.3l1.4-0.4l1.5-0.4
	l-0.4-1.5l1.4-0.4l-0.4-1.4l-0.4-1.5l-1.4,0.4l-0.4-1.5l-1.5,0.4l-0.4-1.4l-0.4-1.5l-1.4,0.4l-0.4-1.5l-1.5,0.4l-0.4-1.4l-0.4-1.5
	l1.5-0.4l1.4-0.4l-0.4-1.4l1.5-0.4l-0.4-1.5l1-1.9l1.5-0.4l-0.4-1.4l1.5-0.4l-1.9-1.1l-0.4-1.4l-0.4-1.5l-1.9-1.1l-1.5-5.8l-1.4,0.4
	l-1.9-1.1l-1.4,0.4l-0.4-1.4l-1.5,0.4l-1.5-5.9l-1.5,0.4l-0.4-1.4l-1.4,0.4l0.4,1.4l-1.5,0.4l0.4,1.5l-1.4,0.4l0.4,1.5l-1.5,0.4
	l-0.4-1.5l-1.5,0.4l-1.8-1.2l0.4,1.5l-2.9,0.7l-0.7-2.9l-1.5,0.4l-1.9-1.1l-0.4-1.4l-1.4,0.4l-0.4-1.5l-2.9,0.7l-1.1,1.9l-1.5,0.4
	l0.4,1.4l-2.9,0.7l1.1,4.4l-4.4,1.1l-1.9-7.2l-1.1-4.4l1.5-0.4l-0.8-3l-1.5,0.4l-0.4-1.4l1.5-0.4l-0.7-2.9l-2.4-0.9l1.5-0.4
	l-0.4-1.6l-1.5,0.4l-0.7-2.8l-2.9,0.7l-1.1-4.5l-1.4,0.4l-1.1-4.1l1.4-0.4l-1.1-4.4l1.5-0.4l-0.4-1.4l-1.9-1.1l-0.4-1.4l1.9,1
	l-0.4-1.4l1.4-0.4l-0.4-1.6l3-0.7l0.4,1.6l1.4-0.4l-0.4-1.6l2.9-0.7l-0.4-1.4l4.4-1.1l-1.9-7.2l-2.5-3.9l1.4-0.4l-1.5-5.9l1.5-0.4
	l1-1.9l-0.4-1.5l1.5-0.4l-0.7-2.8l-1.5,0.4l-0.4-1.5l-1.4,0.4l-1.9-1.1l-4.4,1.1l-1.9-7.3l-1.4,0.4l-0.7-2.9l1.1-1.7l-0.4-1.5
	l1.5-0.4l-1.1-4.4l1.5-0.4l-0.4-1.4l-1.5,0.4l-0.4-1.5l-1.5,0.4l-0.4-1.5l1.9-5l-89.1-3.7l-5.8,1.5l0.4,1.4l-1.5,0.4l0.4,1.6
	l-1.5,0.4l-0.4-1.6l-1.5,0.4l0.4,1.6l-7.2,1.9l0.4,1.4l-1.4,0.4l-0.4-1.4l-1.4,0.4l-0.4-1.6l-1.5,0.4l-0.4-1.4l-0.4-1.5l-1.4,0.4
	l0.4,1.5l-7.3,1.9l-1.2,1.8l-3.9,2.7l-6.2-0.1l-8-1l-5.1-1.7l-5.9-4.8l-1.4,0.4l-3,0.8l0.4,1.4l-1.4,0.4l-1.5,0.4l-0.4-1.4l-1.4,0.4
	l-1.5,0.4l-1.5,0.4l-1.4,0.4L664.3,430.1L664.3,430.1z"/>
<g>
	<g>
		<path class="st2" d="M611.7,337.9c-0.2,0-0.3,0-0.5,0c-0.5,0-0.9-0.1-1.2-0.2c-0.3,0.1-0.7,0.2-1.2,0.2c-0.6,0-1.1-0.1-1.4-0.3
			c-0.3,0.2-0.8,0.3-1.4,0.3c-0.6,0-1.2-0.2-1.5-0.4c-0.3,0.3-0.9,0.4-1.5,0.4c-0.6,0-1.1-0.1-1.4-0.3c-0.3,0.2-0.8,0.3-1.4,0.3
			c-0.2,0-0.4,0-0.6-0.1c0,0.1,0,0.2,0,0.2c0,1,0.8,1.9,1.9,1.9h8.2c1,0,1.9-0.8,1.9-1.9C611.7,338.1,611.7,338,611.7,337.9
			C611.7,338,611.7,338,611.7,337.9z"/>
	</g>
	<path class="st3" d="M611.7,336.3c0,0.3-0.2,0.5-0.5,0.5h-0.8c0.1,0.1,0.2,0.2,0.2,0.4c0,0.3-0.2,0.5-0.6,0.6
		c0.3,0.1,0.7,0.2,1.2,0.2c1,0,1.8-0.4,1.8-0.9C612.9,336.7,612.4,336.4,611.7,336.3z"/>
	<path class="st4" d="M607.6,336.7c0.1,0.1,0.2,0.2,0.2,0.4c0,0.2-0.1,0.4-0.4,0.5c0.3,0.2,0.8,0.3,1.4,0.3c1,0,1.8-0.4,1.8-0.9
		c0-0.1-0.1-0.3-0.2-0.4H607.6z"/>
	<path class="st2" d="M611.7,335.1c0-1-0.8-1.9-1.9-1.9c-0.5,0-1,0.2-1.4,0.6c-0.3-0.4-0.8-0.6-1.4-0.6c-0.5,0-1,0.2-1.4,0.6
		c-0.3-0.4-0.8-0.6-1.4-0.6c-0.5,0-1,0.2-1.4,0.6c-0.3-0.4-0.8-0.6-1.4-0.6c-1,0-1.9,0.8-1.9,1.9c0,0,0,0.1,0,0.1c0,0,0,0,0,0v1
		c0,0.3,0.2,0.5,0.5,0.5h11c0.3,0,0.5-0.2,0.5-0.5v-1C611.7,335.2,611.7,335.2,611.7,335.1C611.7,335.2,611.7,335.1,611.7,335.1z"/>
	<path class="st3" d="M600.2,336.7c-0.3,0-0.5-0.2-0.5-0.4c-0.7,0.1-1.1,0.4-1.1,0.8c0,0.5,0.8,0.9,1.8,0.9c1,0,1.8-0.4,1.8-0.9
		c0-0.1-0.1-0.3-0.2-0.4H600.2z"/>
	<path class="st4" d="M601.9,336.7c0.1,0.1,0.2,0.2,0.2,0.4c0,0.2-0.1,0.4-0.4,0.5c0.3,0.2,0.8,0.3,1.4,0.3c1,0,1.8-0.4,1.8-0.9
		c0-0.1-0.1-0.3-0.2-0.4H601.9z"/>
	<path class="st3" d="M604.6,336.7c0.1,0.1,0.2,0.2,0.2,0.4c0,0.2-0.1,0.3-0.2,0.4c0.3,0.3,0.9,0.4,1.5,0.4c1,0,1.8-0.4,1.8-0.9
		c0-0.1-0.1-0.3-0.2-0.4H604.6z"/>
	<circle class="st5" cx="601.3" cy="338.7" r="0.2"/>
	<circle class="st5" cx="602.6" cy="339.2" r="0.2"/>
	<circle class="st5" cx="603.6" cy="338.7" r="0.2"/>
	<circle class="st5" cx="604.3" cy="339.2" r="0.2"/>
	<circle class="st5" cx="605.3" cy="338.7" r="0.2"/>
	<circle class="st5" cx="606.3" cy="339.2" r="0.2"/>
	<circle class="st5" cx="607.3" cy="338.5" r="0.2"/>
	<circle class="st5" cx="608.1" cy="339.2" r="0.2"/>
	<circle class="st5" cx="609.3" cy="338.7" r="0.2"/>
	<circle class="st5" cx="610.3" cy="339" r="0.2"/>
	<path class="st5" d="M602.5,335.6c-0.1,0-0.2-0.1-0.2-0.2c0-1.2,1-2.1,2.1-2.1c0.1,0,0.2,0.1,0.2,0.2c0,0.1-0.1,0.2-0.2,0.2
		c-0.9,0-1.6,0.7-1.6,1.6C602.8,335.5,602.7,335.6,602.5,335.6z"/>
	<path class="st5" d="M605.2,335.6c-0.1,0-0.2-0.1-0.2-0.2c0-1.2,1-2.1,2.1-2.1c0.1,0,0.2,0.1,0.2,0.2s-0.1,0.2-0.2,0.2
		c-0.9,0-1.6,0.7-1.6,1.6C605.4,335.5,605.3,335.6,605.2,335.6z"/>
	<g>
		<path class="st2" d="M607.9,335.3c0-1,0.8-1.9,1.9-1.9"/>
		<path class="st5" d="M607.9,335.6c-0.1,0-0.2-0.1-0.2-0.2c0-1.2,1-2.1,2.1-2.1c0.1,0,0.2,0.1,0.2,0.2s-0.1,0.2-0.2,0.2
			c-0.9,0-1.6,0.7-1.6,1.6C608.2,335.5,608.1,335.6,607.9,335.6z"/>
	</g>
	<path class="st6" d="M602.2,336.2c-0.1,0-0.1,0-0.1,0c0-0.2-0.2-0.3-0.4-0.3c0,0-0.1,0-0.1,0c0-0.2-0.2-0.3-0.4-0.3
		c-0.2,0-0.3,0.1-0.4,0.3c0,0-0.1,0-0.1,0c-0.1,0-0.3,0-0.4,0.1c-0.1-0.1-0.2-0.1-0.4-0.1c-0.3,0-0.6,0.2-0.6,0.5
		c0,0.3,0.3,0.5,0.6,0.5c0.1,0,0.2,0,0.2,0c0.1,0.2,0.3,0.3,0.5,0.3c0.1,0,0.2,0,0.3-0.1c0.1,0.1,0.2,0.1,0.3,0.1
		c0.2,0,0.4-0.1,0.5-0.3c0.1,0.1,0.2,0.1,0.4,0.1c0.3,0,0.6-0.2,0.6-0.4S602.5,336.2,602.2,336.2z"/>
	<path class="st6" d="M605.2,336.2c-0.1,0-0.1,0-0.1,0c0-0.2-0.2-0.3-0.4-0.3c0,0-0.1,0-0.1,0c0-0.2-0.2-0.3-0.4-0.3
		c-0.2,0-0.3,0.1-0.4,0.3c0,0-0.1,0-0.1,0c-0.1,0-0.3,0-0.4,0.1c-0.1-0.1-0.2-0.1-0.4-0.1c-0.3,0-0.6,0.2-0.6,0.5
		c0,0.3,0.3,0.5,0.6,0.5c0.1,0,0.2,0,0.2,0c0.1,0.2,0.3,0.3,0.5,0.3c0.1,0,0.2,0,0.3-0.1c0.1,0.1,0.2,0.1,0.3,0.1
		c0.2,0,0.4-0.1,0.5-0.3c0.1,0.1,0.2,0.1,0.4,0.1c0.3,0,0.6-0.2,0.6-0.4S605.5,336.2,605.2,336.2z"/>
	<path class="st6" d="M608.4,336.2c-0.1,0-0.1,0-0.1,0c0-0.2-0.2-0.3-0.4-0.3c0,0-0.1,0-0.1,0c0-0.2-0.2-0.3-0.4-0.3
		c-0.2,0-0.3,0.1-0.4,0.3c0,0-0.1,0-0.1,0c-0.1,0-0.3,0-0.4,0.1c-0.1-0.1-0.2-0.1-0.4-0.1c-0.3,0-0.6,0.2-0.6,0.5
		c0,0.3,0.3,0.5,0.6,0.5c0.1,0,0.2,0,0.2,0c0.1,0.2,0.3,0.3,0.5,0.3c0.1,0,0.2,0,0.3-0.1c0.1,0.1,0.2,0.1,0.3,0.1
		c0.2,0,0.4-0.1,0.5-0.3c0.1,0.1,0.2,0.1,0.4,0.1c0.3,0,0.6-0.2,0.6-0.4S608.8,336.2,608.4,336.2z"/>
	<path class="st6" d="M611.7,336.2c-0.1,0-0.1,0-0.1,0c0-0.2-0.2-0.3-0.4-0.3c0,0-0.1,0-0.1,0c0-0.2-0.2-0.3-0.4-0.3
		c-0.2,0-0.3,0.1-0.4,0.3c0,0-0.1,0-0.1,0c-0.1,0-0.3,0-0.4,0.1c-0.1-0.1-0.2-0.1-0.4-0.1c-0.3,0-0.6,0.2-0.6,0.5
		c0,0.3,0.3,0.5,0.6,0.5c0.1,0,0.2,0,0.2,0c0.1,0.2,0.3,0.3,0.5,0.3c0.1,0,0.2,0,0.3-0.1c0.1,0.1,0.2,0.1,0.3,0.1
		c0.2,0,0.4-0.1,0.5-0.3c0.1,0.1,0.2,0.1,0.4,0.1c0.3,0,0.6-0.2,0.6-0.4S612,336.2,611.7,336.2z"/>
</g>
<g>
	<g>
		<path class="st2" d="M519.5,245.6c-0.2,0-0.3,0-0.5,0c-0.5,0-0.9-0.1-1.2-0.2c-0.3,0.1-0.7,0.2-1.2,0.2c-0.6,0-1.1-0.1-1.4-0.3
			c-0.3,0.2-0.8,0.3-1.4,0.3c-0.6,0-1.2-0.2-1.5-0.4c-0.3,0.3-0.9,0.4-1.5,0.4c-0.6,0-1.1-0.1-1.4-0.3c-0.3,0.2-0.8,0.3-1.4,0.3
			c-0.2,0-0.4,0-0.6-0.1c0,0.1,0,0.2,0,0.2c0,1,0.8,1.9,1.9,1.9h8.2c1,0,1.9-0.8,1.9-1.9C519.5,245.7,519.5,245.7,519.5,245.6
			C519.5,245.7,519.5,245.6,519.5,245.6z"/>
	</g>
	<path class="st3" d="M519.5,243.9c0,0.3-0.2,0.5-0.5,0.5h-0.8c0.1,0.1,0.2,0.2,0.2,0.4c0,0.3-0.2,0.5-0.6,0.6
		c0.3,0.1,0.7,0.2,1.2,0.2c1,0,1.8-0.4,1.8-0.9C520.8,244.4,520.3,244,519.5,243.9z"/>
	<path class="st4" d="M515.5,244.4c0.1,0.1,0.2,0.2,0.2,0.4c0,0.2-0.1,0.4-0.4,0.5c0.3,0.2,0.8,0.3,1.4,0.3c1,0,1.8-0.4,1.8-0.9
		c0-0.1-0.1-0.3-0.2-0.4H515.5z"/>
	<path class="st2" d="M519.5,242.8c0-1-0.8-1.9-1.9-1.9c-0.5,0-1,0.2-1.4,0.6c-0.3-0.4-0.8-0.6-1.4-0.6c-0.5,0-1,0.2-1.4,0.6
		c-0.3-0.4-0.8-0.6-1.4-0.6c-0.5,0-1,0.2-1.4,0.6c-0.3-0.4-0.8-0.6-1.4-0.6c-1,0-1.9,0.8-1.9,1.9c0,0,0,0.1,0,0.1c0,0,0,0,0,0v1
		c0,0.3,0.2,0.5,0.5,0.5h11c0.3,0,0.5-0.2,0.5-0.5v-1C519.5,242.9,519.5,242.9,519.5,242.8C519.5,242.8,519.5,242.8,519.5,242.8z"/>
	<path class="st3" d="M508,244.4c-0.3,0-0.5-0.2-0.5-0.4c-0.7,0.1-1.1,0.4-1.1,0.8c0,0.5,0.8,0.9,1.8,0.9s1.8-0.4,1.8-0.9
		c0-0.1-0.1-0.3-0.2-0.4H508z"/>
	<path class="st4" d="M509.7,244.4c0.1,0.1,0.2,0.2,0.2,0.4c0,0.2-0.1,0.4-0.4,0.5c0.3,0.2,0.8,0.3,1.4,0.3c1,0,1.7-0.4,1.7-0.9
		c0-0.1-0.1-0.3-0.2-0.4H509.7z"/>
	<path class="st3" d="M512.5,244.4c0.1,0.1,0.2,0.2,0.2,0.4c0,0.2-0.1,0.3-0.2,0.4c0.3,0.3,0.9,0.4,1.5,0.4c1,0,1.8-0.4,1.8-0.9
		c0-0.1-0.1-0.3-0.2-0.4H512.5z"/>
	<circle class="st5" cx="509.2" cy="246.4" r="0.2"/>
	<circle class="st5" cx="510.4" cy="246.9" r="0.2"/>
	<circle class="st5" cx="511.4" cy="246.4" r="0.2"/>
	<circle class="st5" cx="512.2" cy="246.9" r="0.2"/>
	<circle class="st5" cx="513.2" cy="246.4" r="0.2"/>
	<circle class="st5" cx="514.2" cy="246.9" r="0.2"/>
	<circle class="st5" cx="515.2" cy="246.1" r="0.2"/>
	<circle class="st5" cx="515.9" cy="246.9" r="0.2"/>
	<circle class="st5" cx="517.2" cy="246.4" r="0.2"/>
	<circle class="st5" cx="518.2" cy="246.6" r="0.2"/>
	<path class="st5" d="M510.4,243.2c-0.1,0-0.2-0.1-0.2-0.2c0-1.2,1-2.1,2.1-2.1c0.1,0,0.2,0.1,0.2,0.2c0,0.1-0.1,0.2-0.2,0.2
		c-0.9,0-1.6,0.7-1.6,1.6C510.6,243.1,510.5,243.2,510.4,243.2z"/>
	<path class="st5" d="M513,243.3c-0.1,0-0.2-0.1-0.2-0.2c0-1.2,1-2.1,2.1-2.1c0.1,0,0.2,0.1,0.2,0.2c0,0.1-0.1,0.2-0.2,0.2
		c-0.9,0-1.6,0.7-1.6,1.6C513.3,243.2,513.2,243.3,513,243.3z"/>
	<g>
		<path class="st2" d="M515.8,243c0-1,0.8-1.9,1.9-1.9"/>
		<path class="st5" d="M515.8,243.3c-0.1,0-0.2-0.1-0.2-0.2c0-1.2,1-2.1,2.1-2.1c0.1,0,0.2,0.1,0.2,0.2c0,0.1-0.1,0.2-0.2,0.2
			c-0.9,0-1.6,0.7-1.6,1.6C516,243.2,515.9,243.3,515.8,243.3z"/>
	</g>
	<path class="st6" d="M510,243.9c0,0-0.1,0-0.1,0c0-0.2-0.2-0.3-0.4-0.3c0,0-0.1,0-0.1,0c0-0.2-0.2-0.3-0.4-0.3
		c-0.2,0-0.3,0.1-0.4,0.3c0,0-0.1,0-0.1,0c-0.1,0-0.3,0-0.4,0.1c-0.1-0.1-0.2-0.1-0.4-0.1c-0.3,0-0.6,0.2-0.6,0.5
		c0,0.3,0.3,0.5,0.6,0.5c0.1,0,0.2,0,0.2,0c0.1,0.2,0.3,0.3,0.5,0.3c0.1,0,0.2,0,0.3-0.1c0.1,0.1,0.2,0.1,0.3,0.1
		c0.2,0,0.4-0.1,0.5-0.3c0.1,0.1,0.2,0.1,0.4,0.1c0.3,0,0.6-0.2,0.6-0.4S510.4,243.9,510,243.9z"/>
	<path class="st6" d="M513,243.9c0,0-0.1,0-0.1,0c0-0.2-0.2-0.3-0.4-0.3c0,0-0.1,0-0.1,0c0-0.2-0.2-0.3-0.4-0.3
		c-0.2,0-0.3,0.1-0.4,0.3c0,0-0.1,0-0.1,0c-0.1,0-0.3,0-0.4,0.1c-0.1-0.1-0.2-0.1-0.4-0.1c-0.3,0-0.6,0.2-0.6,0.5
		c0,0.3,0.3,0.5,0.6,0.5c0.1,0,0.2,0,0.2,0c0.1,0.2,0.3,0.3,0.5,0.3c0.1,0,0.2,0,0.3-0.1c0.1,0.1,0.2,0.1,0.3,0.1
		c0.2,0,0.4-0.1,0.5-0.3c0.1,0.1,0.2,0.1,0.4,0.1c0.3,0,0.6-0.2,0.6-0.4S513.4,243.9,513,243.9z"/>
	<path class="st6" d="M516.3,243.9c0,0-0.1,0-0.1,0c0-0.2-0.2-0.3-0.4-0.3c0,0-0.1,0-0.1,0c0-0.2-0.2-0.3-0.4-0.3
		c-0.2,0-0.3,0.1-0.4,0.3c0,0-0.1,0-0.1,0c-0.1,0-0.3,0-0.4,0.1c-0.1-0.1-0.2-0.1-0.4-0.1c-0.3,0-0.6,0.2-0.6,0.5
		c0,0.3,0.3,0.5,0.6,0.5c0.1,0,0.2,0,0.2,0c0.1,0.2,0.3,0.3,0.5,0.3c0.1,0,0.2,0,0.3-0.1c0.1,0.1,0.2,0.1,0.3,0.1
		c0.2,0,0.4-0.1,0.5-0.3c0.1,0.1,0.2,0.1,0.4,0.1c0.3,0,0.6-0.2,0.6-0.4S516.6,243.9,516.3,243.9z"/>
	<path class="st6" d="M519.5,243.9c0,0-0.1,0-0.1,0c0-0.2-0.2-0.3-0.4-0.3c0,0-0.1,0-0.1,0c0-0.2-0.2-0.3-0.4-0.3
		c-0.2,0-0.3,0.1-0.4,0.3c0,0-0.1,0-0.1,0c-0.1,0-0.3,0-0.4,0.1c-0.1-0.1-0.2-0.1-0.4-0.1c-0.3,0-0.6,0.2-0.6,0.5
		c0,0.3,0.3,0.5,0.6,0.5c0.1,0,0.2,0,0.2,0c0.1,0.2,0.3,0.3,0.5,0.3c0.1,0,0.2,0,0.3-0.1c0.1,0.1,0.2,0.1,0.3,0.1
		c0.2,0,0.4-0.1,0.5-0.3c0.1,0.1,0.2,0.1,0.4,0.1c0.3,0,0.6-0.2,0.6-0.4S519.9,243.9,519.5,243.9z"/>
</g>
<g>
	<g>
		<path class="st2" d="M639.9,278.4c-0.2,0-0.3,0-0.5,0c-0.5,0-0.9-0.1-1.2-0.2c-0.3,0.1-0.7,0.2-1.2,0.2c-0.6,0-1.1-0.1-1.4-0.3
			c-0.3,0.2-0.8,0.3-1.4,0.3c-0.6,0-1.2-0.2-1.5-0.4c-0.3,0.3-0.9,0.4-1.5,0.4c-0.6,0-1.1-0.1-1.4-0.3c-0.3,0.2-0.8,0.3-1.4,0.3
			c-0.2,0-0.4,0-0.6-0.1c0,0.1,0,0.2,0,0.2c0,1,0.8,1.9,1.9,1.9h8.2c1,0,1.9-0.8,1.9-1.9C639.9,278.5,639.9,278.5,639.9,278.4
			C639.9,278.5,639.9,278.4,639.9,278.4z"/>
	</g>
	<path class="st3" d="M639.9,276.7c0,0.3-0.2,0.5-0.5,0.5h-0.8c0.1,0.1,0.2,0.2,0.2,0.4c0,0.3-0.2,0.5-0.6,0.6
		c0.3,0.1,0.7,0.2,1.2,0.2c1,0,1.8-0.4,1.8-0.9C641.1,277.1,640.6,276.8,639.9,276.7z"/>
	<path class="st4" d="M635.8,277.2c0.1,0.1,0.2,0.2,0.2,0.4c0,0.2-0.1,0.4-0.4,0.5c0.3,0.2,0.8,0.3,1.4,0.3c1,0,1.8-0.4,1.8-0.9
		c0-0.1-0.1-0.3-0.2-0.4H635.8z"/>
	<path class="st2" d="M639.9,275.5c0-1-0.8-1.9-1.9-1.9c-0.5,0-1,0.2-1.4,0.6c-0.3-0.4-0.8-0.6-1.4-0.6c-0.5,0-1,0.2-1.4,0.6
		c-0.3-0.4-0.8-0.6-1.4-0.6c-0.5,0-1,0.2-1.4,0.6c-0.3-0.4-0.8-0.6-1.4-0.6c-1,0-1.9,0.8-1.9,1.9c0,0,0,0.1,0,0.1c0,0,0,0,0,0v1
		c0,0.3,0.2,0.5,0.5,0.5h11c0.3,0,0.5-0.2,0.5-0.5v-1C639.9,275.7,639.9,275.6,639.9,275.5C639.9,275.6,639.9,275.6,639.9,275.5z"/>
	<path class="st3" d="M628.4,277.2c-0.3,0-0.5-0.2-0.5-0.4c-0.7,0.1-1.1,0.4-1.1,0.8c0,0.5,0.8,0.9,1.8,0.9c1,0,1.8-0.4,1.8-0.9
		c0-0.1-0.1-0.3-0.2-0.4H628.4z"/>
	<path class="st4" d="M630.1,277.2c0.1,0.1,0.2,0.2,0.2,0.4c0,0.2-0.1,0.4-0.4,0.5c0.3,0.2,0.8,0.3,1.4,0.3c1,0,1.8-0.4,1.8-0.9
		c0-0.1-0.1-0.3-0.2-0.4H630.1z"/>
	<path class="st3" d="M632.9,277.2c0.1,0.1,0.2,0.2,0.2,0.4c0,0.2-0.1,0.3-0.2,0.4c0.3,0.3,0.9,0.4,1.5,0.4c1,0,1.8-0.4,1.8-0.9
		c0-0.1-0.1-0.3-0.2-0.4H632.9z"/>
	<circle class="st5" cx="629.5" cy="279.2" r="0.2"/>
	<circle class="st5" cx="630.8" cy="279.7" r="0.2"/>
	<circle class="st5" cx="631.8" cy="279.2" r="0.2"/>
	<circle class="st5" cx="632.5" cy="279.7" r="0.2"/>
	<circle class="st5" cx="633.5" cy="279.2" r="0.2"/>
	<circle class="st5" cx="634.5" cy="279.7" r="0.2"/>
	<circle class="st5" cx="635.5" cy="278.9" r="0.2"/>
	<circle class="st5" cx="636.3" cy="279.7" r="0.2"/>
	<circle class="st5" cx="637.5" cy="279.2" r="0.2"/>
	<circle class="st5" cx="638.5" cy="279.4" r="0.2"/>
	<path class="st5" d="M630.8,276c-0.1,0-0.2-0.1-0.2-0.2c0-1.2,1-2.1,2.1-2.1c0.1,0,0.2,0.1,0.2,0.2s-0.1,0.2-0.2,0.2
		c-0.9,0-1.6,0.7-1.6,1.6C631,275.9,630.9,276,630.8,276z"/>
	<path class="st5" d="M633.4,276c-0.1,0-0.2-0.1-0.2-0.2c0-1.2,1-2.1,2.1-2.1c0.1,0,0.2,0.1,0.2,0.2s-0.1,0.2-0.2,0.2
		c-0.9,0-1.6,0.7-1.6,1.6C633.6,275.9,633.5,276,633.4,276z"/>
	<g>
		<path class="st2" d="M636.1,275.8c0-1,0.8-1.9,1.9-1.9"/>
		<path class="st5" d="M636.1,276c-0.1,0-0.2-0.1-0.2-0.2c0-1.2,1-2.1,2.1-2.1c0.1,0,0.2,0.1,0.2,0.2s-0.1,0.2-0.2,0.2
			c-0.9,0-1.6,0.7-1.6,1.6C636.4,275.9,636.3,276,636.1,276z"/>
	</g>
	<path class="st6" d="M630.4,276.7c0,0-0.1,0-0.1,0c0-0.2-0.2-0.3-0.4-0.3c0,0-0.1,0-0.1,0c0-0.2-0.2-0.3-0.4-0.3
		c-0.2,0-0.3,0.1-0.4,0.3c0,0-0.1,0-0.1,0c-0.1,0-0.3,0-0.4,0.1c-0.1-0.1-0.2-0.1-0.4-0.1c-0.3,0-0.6,0.2-0.6,0.5
		c0,0.3,0.3,0.5,0.6,0.5c0.1,0,0.2,0,0.2,0c0.1,0.2,0.3,0.3,0.5,0.3c0.1,0,0.2,0,0.3-0.1c0.1,0.1,0.2,0.1,0.3,0.1
		c0.2,0,0.4-0.1,0.5-0.3c0.1,0.1,0.2,0.1,0.4,0.1c0.3,0,0.6-0.2,0.6-0.4S630.7,276.7,630.4,276.7z"/>
	<path class="st6" d="M633.4,276.7c0,0-0.1,0-0.1,0c0-0.2-0.2-0.3-0.4-0.3c0,0-0.1,0-0.1,0c0-0.2-0.2-0.3-0.4-0.3
		c-0.2,0-0.3,0.1-0.4,0.3c0,0-0.1,0-0.1,0c-0.1,0-0.3,0-0.4,0.1c-0.1-0.1-0.2-0.1-0.4-0.1c-0.3,0-0.6,0.2-0.6,0.5
		c0,0.3,0.3,0.5,0.6,0.5c0.1,0,0.2,0,0.2,0c0.1,0.2,0.3,0.3,0.5,0.3c0.1,0,0.2,0,0.3-0.1c0.1,0.1,0.2,0.1,0.3,0.1
		c0.2,0,0.4-0.1,0.5-0.3c0.1,0.1,0.2,0.1,0.4,0.1c0.3,0,0.6-0.2,0.6-0.4S633.7,276.7,633.4,276.7z"/>
	<path class="st6" d="M636.6,276.7c0,0-0.1,0-0.1,0c0-0.2-0.2-0.3-0.4-0.3c0,0-0.1,0-0.1,0c0-0.2-0.2-0.3-0.4-0.3
		c-0.2,0-0.3,0.1-0.4,0.3c0,0-0.1,0-0.1,0c-0.1,0-0.3,0-0.4,0.1c-0.1-0.1-0.2-0.1-0.4-0.1c-0.3,0-0.6,0.2-0.6,0.5
		c0,0.3,0.3,0.5,0.6,0.5c0.1,0,0.2,0,0.2,0c0.1,0.2,0.3,0.3,0.5,0.3c0.1,0,0.2,0,0.3-0.1c0.1,0.1,0.2,0.1,0.3,0.1
		c0.2,0,0.4-0.1,0.5-0.3c0.1,0.1,0.2,0.1,0.4,0.1c0.3,0,0.6-0.2,0.6-0.4S637,276.7,636.6,276.7z"/>
	<path class="st6" d="M639.9,276.7c0,0-0.1,0-0.1,0c0-0.2-0.2-0.3-0.4-0.3c0,0-0.1,0-0.1,0c0-0.2-0.2-0.3-0.4-0.3
		c-0.2,0-0.3,0.1-0.4,0.3c0,0-0.1,0-0.1,0c-0.1,0-0.3,0-0.4,0.1c-0.1-0.1-0.2-0.1-0.4-0.1c-0.3,0-0.6,0.2-0.6,0.5
		c0,0.3,0.3,0.5,0.6,0.5c0.1,0,0.2,0,0.2,0c0.1,0.2,0.3,0.3,0.5,0.3c0.1,0,0.2,0,0.3-0.1c0.1,0.1,0.2,0.1,0.3,0.1
		c0.2,0,0.4-0.1,0.5-0.3c0.1,0.1,0.2,0.1,0.4,0.1c0.3,0,0.6-0.2,0.6-0.4S640.2,276.7,639.9,276.7z"/>
</g>
<g>
	<g>
		<path class="st2" d="M654.3,322.9c-0.2,0-0.3,0-0.5,0c-0.5,0-0.9-0.1-1.2-0.2c-0.3,0.1-0.7,0.2-1.2,0.2c-0.6,0-1.1-0.1-1.4-0.3
			c-0.3,0.2-0.8,0.3-1.4,0.3c-0.6,0-1.2-0.2-1.5-0.4c-0.3,0.3-0.9,0.4-1.5,0.4c-0.6,0-1.1-0.1-1.4-0.3c-0.3,0.2-0.8,0.3-1.4,0.3
			c-0.2,0-0.4,0-0.6-0.1c0,0.1,0,0.2,0,0.2c0,1,0.8,1.9,1.9,1.9h8.2c1,0,1.9-0.8,1.9-1.9C654.3,323,654.3,323,654.3,322.9
			C654.3,323,654.3,322.9,654.3,322.9z"/>
	</g>
	<path class="st3" d="M654.3,321.2c0,0.3-0.2,0.5-0.5,0.5H653c0.1,0.1,0.2,0.2,0.2,0.4c0,0.3-0.2,0.5-0.6,0.6
		c0.3,0.1,0.7,0.2,1.2,0.2c1,0,1.8-0.4,1.8-0.9C655.5,321.7,655,321.3,654.3,321.2z"/>
	<path class="st4" d="M650.2,321.7c0.1,0.1,0.2,0.2,0.2,0.4c0,0.2-0.1,0.4-0.4,0.5c0.3,0.2,0.8,0.3,1.4,0.3c1,0,1.8-0.4,1.8-0.9
		c0-0.1-0.1-0.3-0.2-0.4H650.2z"/>
	<path class="st2" d="M654.3,320.1c0-1-0.8-1.9-1.9-1.9c-0.5,0-1,0.2-1.4,0.6c-0.3-0.4-0.8-0.6-1.4-0.6c-0.5,0-1,0.2-1.4,0.6
		c-0.3-0.4-0.8-0.6-1.4-0.6c-0.5,0-1,0.2-1.4,0.6c-0.3-0.4-0.8-0.6-1.4-0.6c-1,0-1.9,0.8-1.9,1.9c0,0,0,0.1,0,0.1c0,0,0,0,0,0v1
		c0,0.3,0.2,0.5,0.5,0.5h11c0.3,0,0.5-0.2,0.5-0.5v-1C654.3,320.2,654.3,320.2,654.3,320.1C654.3,320.1,654.3,320.1,654.3,320.1z"/>
	<path class="st3" d="M642.8,321.7c-0.3,0-0.5-0.2-0.5-0.4c-0.7,0.1-1.1,0.4-1.1,0.8c0,0.5,0.8,0.9,1.8,0.9c1,0,1.8-0.4,1.8-0.9
		c0-0.1-0.1-0.3-0.2-0.4H642.8z"/>
	<path class="st4" d="M644.5,321.7c0.1,0.1,0.2,0.2,0.2,0.4c0,0.2-0.1,0.4-0.4,0.5c0.3,0.2,0.8,0.3,1.4,0.3c1,0,1.8-0.4,1.8-0.9
		c0-0.1-0.1-0.3-0.2-0.4H644.5z"/>
	<path class="st3" d="M647.2,321.7c0.1,0.1,0.2,0.2,0.2,0.4c0,0.2-0.1,0.3-0.2,0.4c0.3,0.3,0.9,0.4,1.5,0.4c1,0,1.8-0.4,1.8-0.9
		c0-0.1-0.1-0.3-0.2-0.4H647.2z"/>
	<circle class="st5" cx="643.9" cy="323.7" r="0.2"/>
	<circle class="st5" cx="645.1" cy="324.2" r="0.2"/>
	<circle class="st5" cx="646.1" cy="323.7" r="0.2"/>
	<circle class="st5" cx="646.9" cy="324.2" r="0.2"/>
	<circle class="st5" cx="647.9" cy="323.7" r="0.2"/>
	<circle class="st5" cx="648.9" cy="324.2" r="0.2"/>
	<circle class="st5" cx="649.9" cy="323.4" r="0.2"/>
	<circle class="st5" cx="650.6" cy="324.2" r="0.2"/>
	<circle class="st5" cx="651.9" cy="323.7" r="0.2"/>
	<circle class="st5" cx="652.9" cy="323.9" r="0.2"/>
	<path class="st5" d="M645.1,320.5c-0.1,0-0.2-0.1-0.2-0.2c0-1.2,1-2.1,2.1-2.1c0.1,0,0.2,0.1,0.2,0.2s-0.1,0.2-0.2,0.2
		c-0.9,0-1.6,0.7-1.6,1.6C645.4,320.4,645.3,320.5,645.1,320.5z"/>
	<path class="st5" d="M647.8,320.6c-0.1,0-0.2-0.1-0.2-0.2c0-1.2,1-2.1,2.1-2.1c0.1,0,0.2,0.1,0.2,0.2s-0.1,0.2-0.2,0.2
		c-0.9,0-1.6,0.7-1.6,1.6C648,320.4,647.9,320.6,647.8,320.6z"/>
	<g>
		<path class="st2" d="M650.5,320.3c0-1,0.8-1.9,1.9-1.9"/>
		<path class="st5" d="M650.5,320.6c-0.1,0-0.2-0.1-0.2-0.2c0-1.2,1-2.1,2.1-2.1c0.1,0,0.2,0.1,0.2,0.2s-0.1,0.2-0.2,0.2
			c-0.9,0-1.6,0.7-1.6,1.6C650.8,320.4,650.7,320.6,650.5,320.6z"/>
	</g>
	<path class="st6" d="M644.8,321.2c0,0-0.1,0-0.1,0c0-0.2-0.2-0.3-0.4-0.3c0,0-0.1,0-0.1,0c0-0.2-0.2-0.3-0.4-0.3
		c-0.2,0-0.3,0.1-0.4,0.3c0,0-0.1,0-0.1,0c-0.1,0-0.3,0-0.4,0.1c-0.1-0.1-0.2-0.1-0.4-0.1c-0.3,0-0.6,0.2-0.6,0.5
		c0,0.3,0.3,0.5,0.6,0.5c0.1,0,0.2,0,0.2,0c0.1,0.2,0.3,0.3,0.5,0.3c0.1,0,0.2,0,0.3-0.1c0.1,0.1,0.2,0.1,0.3,0.1
		c0.2,0,0.4-0.1,0.5-0.3c0.1,0.1,0.2,0.1,0.4,0.1c0.3,0,0.6-0.2,0.6-0.4S645.1,321.2,644.8,321.2z"/>
	<path class="st6" d="M647.8,321.2c0,0-0.1,0-0.1,0c0-0.2-0.2-0.3-0.4-0.3c0,0-0.1,0-0.1,0c0-0.2-0.2-0.3-0.4-0.3
		c-0.2,0-0.3,0.1-0.4,0.3c0,0-0.1,0-0.1,0c-0.1,0-0.3,0-0.4,0.1c-0.1-0.1-0.2-0.1-0.4-0.1c-0.3,0-0.6,0.2-0.6,0.5
		c0,0.3,0.3,0.5,0.6,0.5c0.1,0,0.2,0,0.2,0c0.1,0.2,0.3,0.3,0.5,0.3c0.1,0,0.2,0,0.3-0.1c0.1,0.1,0.2,0.1,0.3,0.1
		c0.2,0,0.4-0.1,0.5-0.3c0.1,0.1,0.2,0.1,0.4,0.1c0.3,0,0.6-0.2,0.6-0.4S648.1,321.2,647.8,321.2z"/>
	<path class="st6" d="M651,321.2c0,0-0.1,0-0.1,0c0-0.2-0.2-0.3-0.4-0.3c0,0-0.1,0-0.1,0c0-0.2-0.2-0.3-0.4-0.3
		c-0.2,0-0.3,0.1-0.4,0.3c0,0-0.1,0-0.1,0c-0.1,0-0.3,0-0.4,0.1c-0.1-0.1-0.2-0.1-0.4-0.1c-0.3,0-0.6,0.2-0.6,0.5
		c0,0.3,0.3,0.5,0.6,0.5c0.1,0,0.2,0,0.2,0c0.1,0.2,0.3,0.3,0.5,0.3c0.1,0,0.2,0,0.3-0.1c0.1,0.1,0.2,0.1,0.3,0.1
		c0.2,0,0.4-0.1,0.5-0.3c0.1,0.1,0.2,0.1,0.4,0.1c0.3,0,0.6-0.2,0.6-0.4S651.4,321.2,651,321.2z"/>
	<path class="st6" d="M654.3,321.2c0,0-0.1,0-0.1,0c0-0.2-0.2-0.3-0.4-0.3c0,0-0.1,0-0.1,0c0-0.2-0.2-0.3-0.4-0.3
		c-0.2,0-0.3,0.1-0.4,0.3c0,0-0.1,0-0.1,0c-0.1,0-0.3,0-0.4,0.1c-0.1-0.1-0.2-0.1-0.4-0.1c-0.3,0-0.6,0.2-0.6,0.5
		c0,0.3,0.3,0.5,0.6,0.5c0.1,0,0.2,0,0.2,0c0.1,0.2,0.3,0.3,0.5,0.3c0.1,0,0.2,0,0.3-0.1c0.1,0.1,0.2,0.1,0.3,0.1
		c0.2,0,0.4-0.1,0.5-0.3c0.1,0.1,0.2,0.1,0.4,0.1c0.3,0,0.6-0.2,0.6-0.4S654.6,321.2,654.3,321.2z"/>
</g>
<g>
	<g>
		<path class="st2" d="M732.7,268.2c-0.2,0-0.3,0-0.5,0c-0.5,0-0.9-0.1-1.2-0.2c-0.3,0.1-0.7,0.2-1.2,0.2c-0.6,0-1.1-0.1-1.4-0.3
			c-0.3,0.2-0.8,0.3-1.4,0.3c-0.6,0-1.2-0.2-1.5-0.4c-0.3,0.3-0.9,0.4-1.5,0.4c-0.6,0-1.1-0.1-1.4-0.3c-0.3,0.2-0.8,0.3-1.4,0.3
			c-0.2,0-0.4,0-0.6-0.1c0,0.1,0,0.2,0,0.2c0,1,0.8,1.9,1.9,1.9h8.2c1,0,1.9-0.8,1.9-1.9C732.7,268.4,732.7,268.3,732.7,268.2
			C732.7,268.3,732.7,268.3,732.7,268.2z"/>
	</g>
	<path class="st3" d="M732.7,266.6c0,0.3-0.2,0.5-0.5,0.5h-0.8c0.1,0.1,0.2,0.2,0.2,0.4c0,0.3-0.2,0.5-0.6,0.6
		c0.3,0.1,0.7,0.2,1.2,0.2c1,0,1.8-0.4,1.8-0.9C734,267,733.4,266.7,732.7,266.6z"/>
	<path class="st4" d="M728.7,267c0.1,0.1,0.2,0.2,0.2,0.4c0,0.2-0.1,0.4-0.4,0.5c0.3,0.2,0.8,0.3,1.4,0.3c1,0,1.8-0.4,1.8-0.9
		c0-0.1-0.1-0.3-0.2-0.4H728.7z"/>
	<path class="st2" d="M732.7,265.4c0-1-0.8-1.9-1.9-1.9c-0.5,0-1,0.2-1.4,0.6c-0.3-0.4-0.8-0.6-1.4-0.6s-1,0.2-1.4,0.6
		c-0.3-0.4-0.8-0.6-1.4-0.6s-1,0.2-1.4,0.6c-0.3-0.4-0.8-0.6-1.4-0.6c-1,0-1.9,0.8-1.9,1.9c0,0,0,0.1,0,0.1c0,0,0,0,0,0v1
		c0,0.3,0.2,0.5,0.5,0.5h11c0.3,0,0.5-0.2,0.5-0.5v-1C732.7,265.5,732.7,265.5,732.7,265.4C732.7,265.4,732.7,265.4,732.7,265.4z"/>
	<path class="st3" d="M721.2,267c-0.3,0-0.5-0.2-0.5-0.4c-0.7,0.1-1.1,0.4-1.1,0.8c0,0.5,0.8,0.9,1.8,0.9s1.8-0.4,1.8-0.9
		c0-0.1-0.1-0.3-0.2-0.4H721.2z"/>
	<path class="st4" d="M722.9,267c0.1,0.1,0.2,0.2,0.2,0.4c0,0.2-0.1,0.4-0.4,0.5c0.3,0.2,0.8,0.3,1.4,0.3c1,0,1.8-0.4,1.8-0.9
		c0-0.1-0.1-0.3-0.2-0.4H722.9z"/>
	<path class="st3" d="M725.7,267c0.1,0.1,0.2,0.2,0.2,0.4c0,0.2-0.1,0.3-0.2,0.4c0.3,0.3,0.9,0.4,1.5,0.4c1,0,1.8-0.4,1.8-0.9
		c0-0.1-0.1-0.3-0.2-0.4H725.7z"/>
	<circle class="st5" cx="722.3" cy="269" r="0.2"/>
	<circle class="st5" cx="723.6" cy="269.5" r="0.2"/>
	<circle class="st5" cx="724.6" cy="269" r="0.2"/>
	<circle class="st5" cx="725.3" cy="269.5" r="0.2"/>
	<circle class="st5" cx="726.3" cy="269" r="0.2"/>
	<circle class="st5" cx="727.3" cy="269.5" r="0.2"/>
	<circle class="st5" cx="728.3" cy="268.8" r="0.2"/>
	<circle class="st5" cx="729.1" cy="269.5" r="0.2"/>
	<circle class="st5" cx="730.3" cy="269" r="0.2"/>
	<circle class="st5" cx="731.3" cy="269.3" r="0.2"/>
	<path class="st5" d="M723.6,265.9c-0.1,0-0.2-0.1-0.2-0.2c0-1.2,1-2.1,2.1-2.1c0.1,0,0.2,0.1,0.2,0.2s-0.1,0.2-0.2,0.2
		c-0.9,0-1.6,0.7-1.6,1.6C723.8,265.8,723.7,265.9,723.6,265.9z"/>
	<path class="st5" d="M726.2,265.9c-0.1,0-0.2-0.1-0.2-0.2c0-1.2,1-2.1,2.1-2.1c0.1,0,0.2,0.1,0.2,0.2c0,0.1-0.1,0.2-0.2,0.2
		c-0.9,0-1.6,0.7-1.6,1.6C726.5,265.8,726.3,265.9,726.2,265.9z"/>
	<g>
		<path class="st2" d="M729,265.6c0-1,0.8-1.9,1.9-1.9"/>
		<path class="st5" d="M729,265.9c-0.1,0-0.2-0.1-0.2-0.2c0-1.2,1-2.1,2.1-2.1c0.1,0,0.2,0.1,0.2,0.2c0,0.1-0.1,0.2-0.2,0.2
			c-0.9,0-1.6,0.7-1.6,1.6C729.2,265.8,729.1,265.9,729,265.9z"/>
	</g>
	<path class="st6" d="M723.2,266.5c0,0-0.1,0-0.1,0c0-0.2-0.2-0.3-0.4-0.3c0,0-0.1,0-0.1,0c0-0.2-0.2-0.3-0.4-0.3
		c-0.2,0-0.3,0.1-0.4,0.3c0,0-0.1,0-0.1,0c-0.1,0-0.3,0-0.4,0.1c-0.1-0.1-0.2-0.1-0.4-0.1c-0.3,0-0.6,0.2-0.6,0.5
		c0,0.3,0.3,0.5,0.6,0.5c0.1,0,0.2,0,0.2,0c0.1,0.2,0.3,0.3,0.5,0.3c0.1,0,0.2,0,0.3-0.1c0.1,0.1,0.2,0.1,0.3,0.1
		c0.2,0,0.4-0.1,0.5-0.3c0.1,0.1,0.2,0.1,0.4,0.1c0.3,0,0.6-0.2,0.6-0.4S723.5,266.5,723.2,266.5z"/>
	<path class="st6" d="M726.2,266.5c0,0-0.1,0-0.1,0c0-0.2-0.2-0.3-0.4-0.3c0,0-0.1,0-0.1,0c0-0.2-0.2-0.3-0.4-0.3
		c-0.2,0-0.3,0.1-0.4,0.3c0,0-0.1,0-0.1,0c-0.1,0-0.3,0-0.4,0.1c-0.1-0.1-0.2-0.1-0.4-0.1c-0.3,0-0.6,0.2-0.6,0.5
		c0,0.3,0.3,0.5,0.6,0.5c0.1,0,0.2,0,0.2,0c0.1,0.2,0.3,0.3,0.5,0.3c0.1,0,0.2,0,0.3-0.1c0.1,0.1,0.2,0.1,0.3,0.1
		c0.2,0,0.4-0.1,0.5-0.3c0.1,0.1,0.2,0.1,0.4,0.1c0.3,0,0.6-0.2,0.6-0.4S726.5,266.5,726.2,266.5z"/>
	<path class="st6" d="M729.5,266.5c0,0-0.1,0-0.1,0c0-0.2-0.2-0.3-0.4-0.3c0,0-0.1,0-0.1,0c0-0.2-0.2-0.3-0.4-0.3
		c-0.2,0-0.3,0.1-0.4,0.3c0,0-0.1,0-0.1,0c-0.1,0-0.3,0-0.4,0.1c-0.1-0.1-0.2-0.1-0.4-0.1c-0.3,0-0.6,0.2-0.6,0.5
		c0,0.3,0.3,0.5,0.6,0.5c0.1,0,0.2,0,0.2,0c0.1,0.2,0.3,0.3,0.5,0.3c0.1,0,0.2,0,0.3-0.1c0.1,0.1,0.2,0.1,0.3,0.1
		c0.2,0,0.4-0.1,0.5-0.3c0.1,0.1,0.2,0.1,0.4,0.1c0.3,0,0.6-0.2,0.6-0.4S729.8,266.5,729.5,266.5z"/>
	<path class="st6" d="M732.7,266.5c0,0-0.1,0-0.1,0c0-0.2-0.2-0.3-0.4-0.3c0,0-0.1,0-0.1,0c0-0.2-0.2-0.3-0.4-0.3
		c-0.2,0-0.3,0.1-0.4,0.3c0,0-0.1,0-0.1,0c-0.1,0-0.3,0-0.4,0.1c-0.1-0.1-0.2-0.1-0.4-0.1c-0.3,0-0.6,0.2-0.6,0.5
		c0,0.3,0.3,0.5,0.6,0.5c0.1,0,0.2,0,0.2,0c0.1,0.2,0.3,0.3,0.5,0.3c0.1,0,0.2,0,0.3-0.1c0.1,0.1,0.2,0.1,0.3,0.1
		c0.2,0,0.4-0.1,0.5-0.3c0.1,0.1,0.2,0.1,0.4,0.1c0.3,0,0.6-0.2,0.6-0.4S733,266.5,732.7,266.5z"/>
</g>
<g>
	<g>
		<path class="st2" d="M725.5,455.6c-0.2,0-0.3,0-0.5,0c-0.5,0-0.9-0.1-1.2-0.2c-0.3,0.1-0.7,0.2-1.2,0.2c-0.6,0-1.1-0.1-1.4-0.3
			c-0.3,0.2-0.8,0.3-1.4,0.3c-0.6,0-1.2-0.2-1.5-0.4c-0.3,0.3-0.9,0.4-1.5,0.4c-0.6,0-1.1-0.1-1.4-0.3c-0.3,0.2-0.8,0.3-1.4,0.3
			c-0.2,0-0.4,0-0.6-0.1c0,0.1,0,0.2,0,0.2c0,1,0.8,1.9,1.9,1.9h8.2c1,0,1.9-0.8,1.9-1.9C725.5,455.7,725.5,455.7,725.5,455.6
			C725.5,455.7,725.5,455.6,725.5,455.6z"/>
	</g>
	<path class="st3" d="M725.5,453.9c0,0.3-0.2,0.5-0.5,0.5h-0.8c0.1,0.1,0.2,0.2,0.2,0.4c0,0.3-0.2,0.5-0.6,0.6
		c0.3,0.1,0.7,0.2,1.2,0.2c1,0,1.8-0.4,1.8-0.9C726.8,454.4,726.2,454,725.5,453.9z"/>
	<path class="st4" d="M721.5,454.4c0.1,0.1,0.2,0.2,0.2,0.4c0,0.2-0.1,0.4-0.4,0.5c0.3,0.2,0.8,0.3,1.4,0.3c1,0,1.8-0.4,1.8-0.9
		c0-0.1-0.1-0.3-0.2-0.4H721.5z"/>
	<path class="st2" d="M725.5,452.8c0-1-0.8-1.9-1.9-1.9c-0.5,0-1,0.2-1.4,0.6c-0.3-0.4-0.8-0.6-1.4-0.6s-1,0.2-1.4,0.6
		c-0.3-0.4-0.8-0.6-1.4-0.6s-1,0.2-1.4,0.6c-0.3-0.4-0.8-0.6-1.4-0.6c-1,0-1.9,0.8-1.9,1.9c0,0,0,0.1,0,0.1c0,0,0,0,0,0v1
		c0,0.3,0.2,0.5,0.5,0.5h11c0.3,0,0.5-0.2,0.5-0.5v-1C725.5,452.9,725.5,452.9,725.5,452.8C725.5,452.8,725.5,452.8,725.5,452.8z"/>
	<path class="st3" d="M714,454.4c-0.3,0-0.5-0.2-0.5-0.4c-0.7,0.1-1.1,0.4-1.1,0.8c0,0.5,0.8,0.9,1.8,0.9s1.8-0.4,1.8-0.9
		c0-0.1-0.1-0.3-0.2-0.4H714z"/>
	<path class="st4" d="M715.7,454.4c0.1,0.1,0.2,0.2,0.2,0.4c0,0.2-0.1,0.4-0.4,0.5c0.3,0.2,0.8,0.3,1.4,0.3c1,0,1.8-0.4,1.8-0.9
		c0-0.1-0.1-0.3-0.2-0.4H715.7z"/>
	<path class="st3" d="M718.5,454.4c0.1,0.1,0.2,0.2,0.2,0.4c0,0.2-0.1,0.3-0.2,0.4c0.3,0.3,0.9,0.4,1.5,0.4c1,0,1.8-0.4,1.8-0.9
		c0-0.1-0.1-0.3-0.2-0.4H718.5z"/>
	<circle class="st5" cx="715.1" cy="456.4" r="0.2"/>
	<circle class="st5" cx="716.4" cy="456.9" r="0.2"/>
	<circle class="st5" cx="717.4" cy="456.4" r="0.2"/>
	<circle class="st5" cx="718.1" cy="456.9" r="0.2"/>
	<circle class="st5" cx="719.1" cy="456.4" r="0.2"/>
	<circle class="st5" cx="720.1" cy="456.9" r="0.2"/>
	<circle class="st5" cx="721.1" cy="456.1" r="0.2"/>
	<circle class="st5" cx="721.9" cy="456.9" r="0.2"/>
	<circle class="st5" cx="723.1" cy="456.4" r="0.2"/>
	<circle class="st5" cx="724.1" cy="456.6" r="0.2"/>
	<path class="st5" d="M716.4,453.2c-0.1,0-0.2-0.1-0.2-0.2c0-1.2,1-2.1,2.1-2.1c0.1,0,0.2,0.1,0.2,0.2s-0.1,0.2-0.2,0.2
		c-0.9,0-1.6,0.7-1.6,1.6C716.6,453.1,716.5,453.2,716.4,453.2z"/>
	<path class="st5" d="M719,453.3c-0.1,0-0.2-0.1-0.2-0.2c0-1.2,1-2.1,2.1-2.1c0.1,0,0.2,0.1,0.2,0.2c0,0.1-0.1,0.2-0.2,0.2
		c-0.9,0-1.6,0.7-1.6,1.6C719.3,453.1,719.2,453.3,719,453.3z"/>
	<g>
		<path class="st2" d="M721.8,453c0-1,0.8-1.9,1.9-1.9"/>
		<path class="st5" d="M721.8,453.3c-0.1,0-0.2-0.1-0.2-0.2c0-1.2,1-2.1,2.1-2.1c0.1,0,0.2,0.1,0.2,0.2c0,0.1-0.1,0.2-0.2,0.2
			c-0.9,0-1.6,0.7-1.6,1.6C722,453.1,721.9,453.3,721.8,453.3z"/>
	</g>
	<path class="st6" d="M716,453.9c0,0-0.1,0-0.1,0c0-0.2-0.2-0.3-0.4-0.3c0,0-0.1,0-0.1,0c0-0.2-0.2-0.3-0.4-0.3
		c-0.2,0-0.3,0.1-0.4,0.3c0,0-0.1,0-0.1,0c-0.1,0-0.3,0-0.4,0.1c-0.1-0.1-0.2-0.1-0.4-0.1c-0.3,0-0.6,0.2-0.6,0.5
		c0,0.3,0.3,0.5,0.6,0.5c0.1,0,0.2,0,0.2,0c0.1,0.2,0.3,0.3,0.5,0.3c0.1,0,0.2,0,0.3-0.1c0.1,0.1,0.2,0.1,0.3,0.1
		c0.2,0,0.4-0.1,0.5-0.3c0.1,0.1,0.2,0.1,0.4,0.1c0.3,0,0.6-0.2,0.6-0.4S716.4,453.9,716,453.9z"/>
	<path class="st6" d="M719,453.9c0,0-0.1,0-0.1,0c0-0.2-0.2-0.3-0.4-0.3c0,0-0.1,0-0.1,0c0-0.2-0.2-0.3-0.4-0.3
		c-0.2,0-0.3,0.1-0.4,0.3c0,0-0.1,0-0.1,0c-0.1,0-0.3,0-0.4,0.1c-0.1-0.1-0.2-0.1-0.4-0.1c-0.3,0-0.6,0.2-0.6,0.5
		c0,0.3,0.3,0.5,0.6,0.5c0.1,0,0.2,0,0.2,0c0.1,0.2,0.3,0.3,0.5,0.3c0.1,0,0.2,0,0.3-0.1c0.1,0.1,0.2,0.1,0.3,0.1
		c0.2,0,0.4-0.1,0.5-0.3c0.1,0.1,0.2,0.1,0.4,0.1c0.3,0,0.6-0.2,0.6-0.4S719.4,453.9,719,453.9z"/>
	<path class="st6" d="M722.3,453.9c0,0-0.1,0-0.1,0c0-0.2-0.2-0.3-0.4-0.3c0,0-0.1,0-0.1,0c0-0.2-0.2-0.3-0.4-0.3
		c-0.2,0-0.3,0.1-0.4,0.3c0,0-0.1,0-0.1,0c-0.1,0-0.3,0-0.4,0.1c-0.1-0.1-0.2-0.1-0.4-0.1c-0.3,0-0.6,0.2-0.6,0.5
		c0,0.3,0.3,0.5,0.6,0.5c0.1,0,0.2,0,0.2,0c0.1,0.2,0.3,0.3,0.5,0.3c0.1,0,0.2,0,0.3-0.1c0.1,0.1,0.2,0.1,0.3,0.1
		c0.2,0,0.4-0.1,0.5-0.3c0.1,0.1,0.2,0.1,0.4,0.1c0.3,0,0.6-0.2,0.6-0.4S722.6,453.9,722.3,453.9z"/>
	<path class="st6" d="M725.5,453.9c0,0-0.1,0-0.1,0c0-0.2-0.2-0.3-0.4-0.3c0,0-0.1,0-0.1,0c0-0.2-0.2-0.3-0.4-0.3
		c-0.2,0-0.3,0.1-0.4,0.3c0,0-0.1,0-0.1,0c-0.1,0-0.3,0-0.4,0.1c-0.1-0.1-0.2-0.1-0.4-0.1c-0.3,0-0.6,0.2-0.6,0.5
		c0,0.3,0.3,0.5,0.6,0.5c0.1,0,0.2,0,0.2,0c0.1,0.2,0.3,0.3,0.5,0.3c0.1,0,0.2,0,0.3-0.1c0.1,0.1,0.2,0.1,0.3,0.1
		c0.2,0,0.4-0.1,0.5-0.3c0.1,0.1,0.2,0.1,0.4,0.1c0.3,0,0.6-0.2,0.6-0.4S725.9,453.9,725.5,453.9z"/>
</g>
</svg>
